<svg id="圖層_1" data-name="圖層 1" xmlns="http://www.w3.org/2000/svg" viewBox="0 0 247.97 132.7"><defs><style>.cls-1,.cls-2{fill:#fff;stroke-linecap:round;stroke-linejoin:round;stroke-width:2.74px;}.cls-1{stroke:#fff;}.cls-2{stroke:#211815;}</style></defs><polygon class="cls-1" points="124.22 99.16 43.1 103.48 25.3 58.24 56.13 25.35 130.6 14.39 221.83 28.4 246.61 61.87 230.84 101.04 139.25 98.39 132.11 131.33 124.22 99.16"/><path d="M94.61,41.24c1.49,4.16,4.16,7.52,8.39,9.15a14.41,14.41,0,0,0-2.48,3.18,16.45,16.45,0,0,1-8.35-9,15.93,15.93,0,0,1-8.28,9,10.55,10.55,0,0,0-2.53-2.86,13.27,13.27,0,0,0,8.07-9.47H81.82V37.77H90c.16-2,.13-4.05.16-6h3.68c0,1.91,0,3.93-.23,6h8.83v3.47Z"/><path d="M126.92,50c0,1.64-.3,2.56-1.29,3.09a8.9,8.9,0,0,1-4.23.64,10.94,10.94,0,0,0-1.1-3.31c1.08.07,2.41.07,2.8.07s.53-.16.53-.53V36H110.25V53.66H107V32.85h19.91ZM122.6,40H111.19V37.19H122.6Zm-7.31,9.35v1.45h-3.06V41.35h9.47v8Zm0-5.26V46.6h3.33V44.07Z"/><path d="M144.29,41.24c1.49,4.16,4.16,7.52,8.39,9.15a14.41,14.41,0,0,0-2.48,3.18,16.45,16.45,0,0,1-8.35-9,15.93,15.93,0,0,1-8.28,9A10.55,10.55,0,0,0,131,50.71a13.27,13.27,0,0,0,8.07-9.47H131.5V37.77h8.17c.16-2,.13-4.05.16-6h3.68c0,1.91,0,3.93-.23,6h8.83v3.47Z"/><path d="M177.08,49.61h-8.55v1.06c0,1.42-.3,2.14-1.38,2.57a12.37,12.37,0,0,1-4.07.42,11.14,11.14,0,0,0-1-2.81c.94,0,2.36,0,2.71,0s.48-.07.48-.35v-.94h-9.17V47h9.17v-.44a19.18,19.18,0,0,0,2-1.13h-6.53v-2.3h9.58l.69-.16,1.87,1.73c-1.08.76-2.35,1.56-3.66,2.3h7.93Zm-17.52-4.46h-3.15v-5h1.66l-.39-6.87a37,37,0,0,0,4.78-1.36l1.33,1.89a23.85,23.85,0,0,1-2.94.85l0,.43h2.74v2H161l0,.53h2.6v.92a12.58,12.58,0,0,0,1.27-.64c-.37-.23-.76-.46-1.11-.64L165.31,36c.39.21.81.44,1.24.69a5.47,5.47,0,0,0,.81-.87l2.11.64a8.89,8.89,0,0,1-1.15,1.34,11.26,11.26,0,0,1,1.24,1L168,40.11a11.59,11.59,0,0,0-1.19-1,15.58,15.58,0,0,1-1.59,1H172l.06-.53h-2.36v-2h2.55l0-.53h-2.46v-2h2.6l0-.52h-2.78v-2h6c-.12,2.49-.3,5.41-.51,7.61h1.68v5h-3.31V42.48h-14Zm1.61-5h3.5c-.28-.3-.69-.73-1-1v.52h-2.5Zm6.65-4.23a12.91,12.91,0,0,0-1-.83,13.23,13.23,0,0,1-1.68,1,12.82,12.82,0,0,0-1.7-1.45,13.64,13.64,0,0,0,1.58-.78c-.37-.21-.71-.42-1.06-.6L165.43,32c.39.18.8.41,1.21.64a6.34,6.34,0,0,0,.72-.76l2.09.62a10,10,0,0,1-1.06,1.22c.37.28.71.55,1,.79Z"/><path d="M63.08,84a24,24,0,0,0-1.77-2.28,15.74,15.74,0,0,1-3.11,3.49,10,10,0,0,0-2.07-2,13.62,13.62,0,0,0,3.2-3.71c-1-1-1.93-2.09-2.76-3,.34-1.4.69-3.17,1-5.08l-1,.07-.3-3L58,68.39c.18-1.56.32-3.13.39-4.57l2.83.11c-.09,1.38-.23,2.85-.44,4.32l.81,0V66.87h2.71v1.2l.8,0v2.86l-.82.06a23.38,23.38,0,0,1-1.5,8A22.82,22.82,0,0,1,65,81.48Zm-2.49-7.34a21,21,0,0,0,.92-5.54l-1.19.07c-.23,1.56-.51,3.06-.76,4.41Zm9,3.47a14.39,14.39,0,0,1-3.17,5,13.88,13.88,0,0,0-2.14-2.26,10.18,10.18,0,0,0,3-3.52ZM73,79.06v6.42H69.77V79.06H64.69V76.28h5.08V75.22H66.48V68.69H65.1V65.91h1.38V63.63h3v2.28h3.34V63.63H76v2.28h1.63v2.78H76v6.53H73v1.06h4.74v2.78ZM69.49,68.69v.74h3.34v-.74Zm0,3.89h3.34v-.76H69.49Zm6.14,6.76a48.05,48.05,0,0,1,2.65,4.41l-2.56,1.13a37.26,37.26,0,0,0-2.48-4.55Z"/><path d="M90,74.74v8c0,1.13-.16,1.8-.88,2.21a5.5,5.5,0,0,1-2.71.44A9.33,9.33,0,0,0,85.66,83c.53,0,1.15,0,1.36,0s.27-.07.27-.27V81.18l-1.74,1.15L85,81.06a10.47,10.47,0,0,1-1.36,4.49A12.44,12.44,0,0,0,81.32,84c1.08-1.68,1.15-4,1.15-5.84v-3.4H81.34V71h.85V64.3h7.89V71H91v2.5h11.84V75.8H91V74.74Zm-1.45-1.59H83.68v.62h4.88ZM84.74,71h.55V67.24h2.1v-.62H84.74Zm.39,7.22c0,.57,0,1.17,0,1.81.64-.25,1.4-.57,2.2-.94v-.83l-.85,1A15.79,15.79,0,0,0,85.13,78Zm2.16-2.3H85.13v1l.69-.71c.49.32,1,.69,1.47,1Zm.1-4.92V69H86.9V71Zm15.66,11.84v2.37H90.72V82.81h2.39c-.16-.48-.34-1-.5-1.4L93.89,81H91.71V76.35H102V81H99.57l1.71.46c-.33.46-.65.92-.92,1.33Zm-.53-9.93H91.23V65.24h2.64V63.65h2.55v1.59H97V63.65H99.6v1.59h2.92Zm-8.88-4.81h.85v-.71h-.85Zm0,2.69h.85V70h-.85Zm.94,8.32H99V78.3H94.58ZM95.25,81a13.57,13.57,0,0,1,.69,1.79h1.61A16.51,16.51,0,0,0,98.22,81Zm1.93-13v-.71h-.73v.71Zm-.73,2v.74h.73V70ZM100,67.36h-.85v.71H100ZM100,70h-.85v.74H100Z"/><path d="M115.35,70H106.2V67.4h3.52a26.08,26.08,0,0,0-1.29-2.66L111,63.52a21.38,21.38,0,0,1,1.65,3.15l-1.38.73h4.07Zm-.94.71a3.87,3.87,0,0,0,2.3-3.93V64.32h8.23V69.2c0,.66,0,1,.3,1h.67A4.17,4.17,0,0,0,127.1,70c.05.83.12,2,.21,2.73a3.07,3.07,0,0,1-1.38.21h-1c-2.53,0-3-1.15-3-3.77V67.4h-2.14a6.59,6.59,0,0,1-3.66,6,13.7,13.7,0,0,0-1.68-2v1.77h-7.22V70.69h7.22Zm.07,5.64h-7.29V73.86h7.29Zm12.6-2.09A15,15,0,0,1,123.66,81,18.58,18.58,0,0,0,128,82.28a13.61,13.61,0,0,0-2,3.06,16.81,16.81,0,0,1-5.13-2.07,18.74,18.74,0,0,1-5.2,2.14A13.53,13.53,0,0,0,114.43,83v1.29H110v.92h-2.8V77.11h7.19v5.24a15.73,15.73,0,0,0,3.71-1.27,17.08,17.08,0,0,1-2.74-3.81l1.84-.65h-2.32v-3.1h9.52l.57-.12Zm-15.5,5.47H110v1.88h1.54Zm6.86-3.11a9.86,9.86,0,0,0,2.36,2.65,10.06,10.06,0,0,0,2-2.65Z"/><path d="M141.34,70H131.5V67.4h3.73a28.36,28.36,0,0,0-1.29-2.66l2.58-1.22a21.38,21.38,0,0,1,1.65,3.15l-1.38.73h4.55Zm-8.85,3.17V70.69h7.89v2.48Zm7.84,3.18h-7.84V73.86h7.84Zm.09,7.91h-5.08v.92h-2.8V77.11h7.88Zm-5.08-4.53v1.88h2.23V79.73Zm17.18-5.31h-4V85.48H145V74.42h-3.77V71.13H145V64.05h3.5v7.08h4Z"/><path d="M177.08,81.43h-8.55v1.06c0,1.42-.3,2.14-1.38,2.57a12.37,12.37,0,0,1-4.07.42,10.8,10.8,0,0,0-1-2.81c1,0,2.37,0,2.72,0s.48-.07.48-.35v-.94h-9.17V78.81h9.17v-.44a19.18,19.18,0,0,0,2-1.13h-6.53v-2.3h9.58l.69-.16,1.87,1.73c-1.08.76-2.35,1.56-3.66,2.3h7.93ZM159.56,77h-3.15v-5h1.66l-.39-6.87a37,37,0,0,0,4.78-1.36l1.33,1.89a23.85,23.85,0,0,1-2.94.85l0,.43h2.74v2H161l0,.53h2.6v.92a12.58,12.58,0,0,0,1.27-.64c-.37-.23-.76-.46-1.11-.64l1.52-1.25c.39.21.81.44,1.24.69a5.47,5.47,0,0,0,.81-.87l2.11.64a8.89,8.89,0,0,1-1.15,1.34,11.26,11.26,0,0,1,1.24,1L168,71.93a11.59,11.59,0,0,0-1.19-1,15.58,15.58,0,0,1-1.59,1H172l.07-.53h-2.36v-2h2.55l0-.53h-2.46v-2h2.6l0-.53h-2.78v-2h6c-.12,2.48-.3,5.4-.51,7.61h1.68v5h-3.31V74.3h-14Zm1.61-5h3.5c-.28-.3-.69-.73-1-1.05v.52h-2.51Zm6.65-4.23a12.91,12.91,0,0,0-1-.83,14.5,14.5,0,0,1-1.68,1,12.31,12.31,0,0,0-1.71-1.45,13,13,0,0,0,1.59-.78c-.37-.21-.71-.42-1.06-.6l1.48-1.22c.39.18.8.41,1.21.64a6.34,6.34,0,0,0,.72-.76l2.09.62a10,10,0,0,1-1.06,1.22c.37.28.71.55,1,.78Z"/><path d="M193.21,78.05v4c0,1.56-.3,2.42-1.47,2.92a11,11,0,0,1-4.21.53,12.32,12.32,0,0,0-1.22-3.27c1.08.07,2.58.07,3,.07s.51-.09.51-.34V78.33c-2.14.2-3.52.34-4.49.46l3.06,1.1a25,25,0,0,1-5,4.74,22.08,22.08,0,0,0-2.92-2.23,14.19,14.19,0,0,0,4.4-3.55,9.25,9.25,0,0,0-1.64.4,26.79,26.79,0,0,0-1-3,10.38,10.38,0,0,0,3.22-1.17,28.84,28.84,0,0,0,2.85-1.49c-2.9.23-3.66.34-4.23.57a31.29,31.29,0,0,0-1-3,6,6,0,0,0,2-.8,23.6,23.6,0,0,0,2.78-1.66c-1.86.28-3.74.51-5.54.69a10.52,10.52,0,0,0-.94-2.82c5.4-.58,11.17-1.66,14.83-3.11l2.48,2.65a45,45,0,0,1-6.55,1.81l1.06.69a34.68,34.68,0,0,1-3.38,2.23l3-.11c.83-.62,1.63-1.24,2.37-1.91L197.65,71a44.25,44.25,0,0,1-6.79,4.35l4.67-.33c-.39-.43-.76-.89-1.1-1.28l2.76-1.41a54.23,54.23,0,0,1,4.41,5.27l-2.85,1.75a19.66,19.66,0,0,0-1.15-1.66Zm3.52.25a29.67,29.67,0,0,1,5.1,4.07l-3,2A28.75,28.75,0,0,0,194,80.07Z"/><polygon class="cls-2" points="12.07 19.11 1.37 37.69 16.94 52.08 37.5 49.99 51.2 37.97 71.06 32.9 84.15 21.08 79.22 2.63 56.13 1.37 37.41 10.66 12.07 19.11"/><path d="M23.43,39.68c2.12-4.56,3.38-8,2.54-10a1.85,1.85,0,0,0-2.6-1.18,3.57,3.57,0,0,0-1.77,2.3l-2.53-1a6.23,6.23,0,0,1,3.66-4,4.53,4.53,0,0,1,6.32,2.42c1,2.36.06,5.81-1.15,8.82a21.32,21.32,0,0,1,2.15-1.13l2.53-1.06,1.16,2.77-9.52,4Z"/><path d="M32.88,29.76c-2-4.72-1-7.87,1.89-9.09s5.86.31,7.83,5,1,8-1.84,9.24S34.87,34.48,32.88,29.76ZM39.5,27c-1.57-3.74-2.69-4.18-3.67-3.77s-1.42,1.51.15,5.25,2.73,4.32,3.71,3.91S41.09,30.73,39.5,27Z"/><path d="M46.62,29.92c2.12-4.56,3.38-8,2.54-10a1.85,1.85,0,0,0-2.6-1.18A3.57,3.57,0,0,0,44.79,21l-2.53-1a6.23,6.23,0,0,1,3.66-4,4.53,4.53,0,0,1,6.32,2.42c1,2.36.06,5.81-1.15,8.82a19.32,19.32,0,0,1,2.15-1.12L55.77,25l1.16,2.77-9.51,4Z"/><path d="M56.08,20c-2-4.72-1-7.87,1.88-9.08s5.86.31,7.83,5,1.06,8-1.84,9.24S58.06,24.72,56.08,20Zm6.61-2.79C61.12,13.47,60,13,59,13.44S57.6,15,59.17,18.7,61.9,23,62.88,22.6,64.28,21,62.69,17.21Z"/></svg>