<svg id="圖層_1" data-name="圖層 1" xmlns="http://www.w3.org/2000/svg" viewBox="0 0 282.1 145.53"><defs><style>.cls-1,.cls-2{fill:#fff;stroke-linecap:round;stroke-linejoin:round;stroke-width:2.74px;}.cls-1{stroke:#fff;}.cls-2{stroke:#211815;}</style></defs><polygon class="cls-1" points="150.61 112.69 49.67 113.8 27.71 60.57 68.25 37.36 158.63 27.23 253.24 39.05 280.74 74.8 263.47 110.5 175.62 112 162.57 144.17 150.61 112.69"/><path d="M126.66,62.83l-3.15-6h-2v6h-4.12V45.72h6.28c3.66,0,6.69,1.24,6.69,5.38a5.07,5.07,0,0,1-2.94,4.95l3.82,6.78Zm-5.13-9.27h1.84c1.95,0,3-.85,3-2.46s-1-2.14-3-2.14h-1.84Z"/><path d="M134.2,56.3c0-4.26,3-6.88,6.21-6.88,3.77,0,5.61,2.74,5.61,6.33a7.54,7.54,0,0,1-.18,1.74h-7.68A3,3,0,0,0,141.42,60a5.31,5.31,0,0,0,2.76-.82l1.36,2.46a8.51,8.51,0,0,1-4.69,1.49C137.1,63.15,134.2,60.62,134.2,56.3Zm8.35-1.47c0-1.31-.58-2.28-2.07-2.28a2.41,2.41,0,0,0-2.39,2.28Z"/><path d="M150.26,54.73h6.5v2.88h-6.5Z"/><path d="M161.41,58.57V44.46h4.07V58.74c0,.85.42,1.1.74,1.1a1.75,1.75,0,0,0,.46-.05l.48,3a5.24,5.24,0,0,1-2,.35C162.33,63.15,161.41,61.31,161.41,58.57Z"/><path d="M170.31,59.17c0-2.76,2.16-4.25,7.27-4.8-.09-1.06-.65-1.68-2-1.68a7.2,7.2,0,0,0-3.43,1.15l-1.42-2.69a10.83,10.83,0,0,1,5.63-1.73c3.38,0,5.29,1.89,5.29,6v7.43h-3.33l-.3-1.31H178a5.61,5.61,0,0,1-3.75,1.63A3.78,3.78,0,0,1,170.31,59.17Zm7.27-.23V56.85c-2.55.34-3.38,1.08-3.38,2,0,.76.55,1.13,1.4,1.13A2.57,2.57,0,0,0,177.58,58.94Z"/><path d="M190.27,61.43h-.09l-.32,1.4h-3.2V44.46h4.07v4.41l-.09,2A5.15,5.15,0,0,1,194,49.42c3.13,0,5.13,2.62,5.13,6.63,0,4.52-2.69,7.1-5.5,7.1A4.65,4.65,0,0,1,190.27,61.43Zm4.67-5.29c0-2.3-.66-3.38-2.11-3.38a2.81,2.81,0,0,0-2.1,1.1V59a2.86,2.86,0,0,0,2,.76C193.93,59.79,194.94,58.76,194.94,56.14Z"/><path d="M80.83,76.85a18.65,18.65,0,0,1-2.17,3.75,23.28,23.28,0,0,0,3,.23,10,10,0,0,0-1.8,2.67,11.18,11.18,0,0,1-5.91-2.14c-.91.89-2.73,1.68-6.2,2H78.87v9.43H76.11c1.89.76,3.84,1.63,5.06,2.25l-3,1.75A42.08,42.08,0,0,0,72.46,94l1.47-1.15h-6.1l2.1.94a27.77,27.77,0,0,1-7.29,3.15,24.91,24.91,0,0,0-2.49-2.43A26.68,26.68,0,0,0,66,92.83H63.17V83.4h4a8,8,0,0,0-.8-1.38H60.18v-2.5h7.15v1.33c3.84-.32,4.41-1.08,4.41-1.77v-.41h-.82a11.41,11.41,0,0,1-1.55,1.77,18.34,18.34,0,0,0-2.46-1.68,8.37,8.37,0,0,0,2.72-4l2.9.67c-.1.28-.21.55-.33.83H78l.49-.14Zm-14,1.54H60.68V76H66.8Zm8.69,7h-9.1V86h9.1Zm-9.1,3.1h9.1V87.8h-9.1Zm0,2.48h9.1v-.66h-9.1Zm8.39-12.25v.48a7.17,7.17,0,0,0,3.52,1.4L76,79.7c.19-.3.42-.64.62-1Z"/><path d="M93.48,81.36H85v-2.6h3.4c-.32-.85-.78-1.86-1.17-2.67l2.34-1.22A24.56,24.56,0,0,1,91,78l-1.27.74h3.73Zm-7.61,3.17V82.05H92.7v2.48Zm0,.69h6.9V87.7h-6.9Zm6.9,10.39h-4.3v.92H85.91V88.46h6.86Zm-4.3-4.53V93h1.7V91.08Zm16-15c-.27,6.6-.2,17,.37,17.2a12.74,12.74,0,0,0,.28-2.87,17.25,17.25,0,0,0,1.68,2.78c-.42,3.45-1.84,4.16-3.45,3.45-2.19-1-2.23-9.18-2.21-17.39H98.86V85h1.77v3.08H98.86v8.78h-3.1V88.05H93.48V85h2.28V79.26H93.82V76.09Z"/><path d="M118.94,81.36h-9.15v-2.6h3.52c-.35-.85-.85-1.86-1.29-2.67l2.57-1.22A23.08,23.08,0,0,1,116.25,78l-1.38.74h4.07Zm-.94.71a3.87,3.87,0,0,0,2.3-3.93V75.68h8.23v4.87c0,.67,0,1,.3,1h.66a3.92,3.92,0,0,0,1.2-.19c.05.83.12,2,.21,2.74a3.26,3.26,0,0,1-1.38.21h-1c-2.53,0-3-1.15-3-3.77V78.76h-2.14a6.56,6.56,0,0,1-3.65,6,13.81,13.81,0,0,0-1.68-2v1.77h-7.22V82.05H118Zm.07,5.63h-7.29V85.22h7.29Zm12.6-2.09a15.11,15.11,0,0,1-3.43,6.72,18.81,18.81,0,0,0,4.37,1.31,13.93,13.93,0,0,0-2.05,3,16.86,16.86,0,0,1-5.12-2.07,18.27,18.27,0,0,1-5.2,2.14A13.8,13.8,0,0,0,118,94.33v1.28h-4.39v.92h-2.81V88.46H118v5.25a15.94,15.94,0,0,0,3.7-1.27A17.11,17.11,0,0,1,119,88.62l1.84-.64H118.5v-3.1H128l.58-.12Zm-15.5,5.47h-1.54V93h1.54ZM122,88a9.86,9.86,0,0,0,2.37,2.64,10.23,10.23,0,0,0,2-2.64Z"/><path d="M144.93,81.36h-9.84v-2.6h3.72c-.34-.85-.85-1.86-1.28-2.67l2.57-1.22A23.08,23.08,0,0,1,141.76,78l-1.38.74h4.55Zm-8.85,3.17V82.05H144v2.48Zm7.84,3.17h-7.84V85.22h7.84Zm.09,7.91h-5.08v.92h-2.81V88.46H144Zm-5.08-4.53V93h2.23V91.08Zm17.18-5.31h-4V96.83h-3.49V85.77h-3.78V82.48h3.78V75.4h3.49v7.08h4Z"/><path d="M171,94.37a12.16,12.16,0,0,0,2.48-2.32L176,93.64a14.52,14.52,0,0,1-3.91,3.24c-.3-.32-.76-.76-1.19-1.17h-5.09v.92h-2.36V91l-.26.27c-.09-.18-.23-.46-.41-.75a24.91,24.91,0,0,1-1.34,6A10.57,10.57,0,0,0,159,95.22c1.38-3.49,1.47-8.57,1.47-12V76.6h0a45.42,45.42,0,0,0,8.11-1.34l2.4,2.19a44.91,44.91,0,0,1-7.82,1.31v.46h7.49v5.7h-2c.2.46.43,1,.59,1.47h1.59v2h-1.86v.55h1.65v1.75h-1.65v.55h1.65V93h-1.65v.55H171Zm-7.85-9.45c0,.78,0,1.63-.09,2.48a11,11,0,0,0,1.06-2.48Zm0-3.26v.82h4.55v-.82ZM168,84.92h-2.85l1.24.35v0Zm-1.22,3.47h-1v.55h1Zm0,2.3h-1v.55h1Zm-1,2.9h1V93h-1Zm.92-7.2c-.11-.34-.23-.66-.36-1-.12.35-.23.67-.35,1Zm7.57-6.69c0-.37.09-.73.11-1.1h-3.24V75.81h9.64V78.6H177.7l-.34,1.1h3V92h-8.8V79.7Zm3.29,2.46h-3.31v.94h3.31Zm0,3.22h-3.31v1h3.31Zm0,3.24h-3.31v1h3.31Zm1,3.47a21.1,21.1,0,0,1,2.69,3l-2.5,1.65a19.69,19.69,0,0,0-2.56-3.12Z"/><path d="M188.54,84.71V96.83h-3.31v-21h9.15v8.9Zm0-6.39v.83h2.71v-.83Zm2.71,3.89v-.85h-2.71v.85ZM205,93c0,1.77-.35,2.69-1.41,3.24s-2.57.62-4.76.62a11.79,11.79,0,0,0-1.05-3.26h-4.3v1.26h-3.09V86h9.13V93.5h1.5c.44,0,.6-.16.6-.58V84.74h-6V75.81H205Zm-8.6-4.23h-2.92v2.11h2.92Zm2.39-10.44v.85h2.83V78.3Zm2.83,4v-.89h-2.83v.89Z"/><path d="M218.64,76.64a38,38,0,0,1-7,10.28,28.4,28.4,0,0,0-3-2.9,24.39,24.39,0,0,0,6.18-8.6ZM225.11,87a72.83,72.83,0,0,1,5.08,8.07L226.72,97c-.3-.67-.69-1.47-1.18-2.33-10.69.95-12.44,1.06-13.75,1.57a31.19,31.19,0,0,0-1.35-3.59,5.18,5.18,0,0,0,2.36-1.75,36.4,36.4,0,0,0,5.59-8.53l4,1.61a45.78,45.78,0,0,1-5.89,8l7.22-.51c-.64-1-1.28-2-1.88-2.94Zm.39-11.47a14,14,0,0,0,5.84,7.82,17.65,17.65,0,0,0-2.53,3.45A20.62,20.62,0,0,1,222.92,79h-3.36V75.54Z"/><path d="M254.25,92.83c0,1.79-.3,2.78-1.38,3.36s-2.53.67-4.65.64a13,13,0,0,0-1.06-3.61c1.15.09,2.63.09,3.06.07s.58-.11.58-.53V79.49H234.93V76.32h19.32Zm-5.59-9.24H235.18v-2.9h13.48Zm-9.18,9.33v1.66h-3.26V84.85h11.45v8.07Zm0-5.22v2.37h4.9V87.7Z"/><polygon class="cls-2" points="12.07 37.03 1.37 55.61 16.94 70 37.5 67.91 59.38 53.64 76.4 49.54 84.15 39 79.22 20.56 56.13 19.29 39.71 28.02 12.07 37.03"/><polygon class="cls-2" points="82.09 6.48 66.75 21.46 77.83 39.54 98.19 43.11 123.11 35.31 140.61 35.98 150.93 27.94 151.19 8.85 129.31 1.37 111.14 5.31 82.09 6.48"/><path d="M88.41,29.64c3.27-3.81,5.42-6.8,5.16-8.95a1.86,1.86,0,0,0-2.19-1.84,3.56,3.56,0,0,0-2.32,1.74L86.9,18.92A6.19,6.19,0,0,1,91.52,16a4.53,4.53,0,0,1,5.42,4c.31,2.54-1.53,5.61-3.51,8.18a21.61,21.61,0,0,1,2.38-.5l2.72-.34.37,3L88.66,31.66Z"/><path d="M100.2,22.65c-.63-5.08,1.16-7.84,4.28-8.23s5.55,1.89,6.18,6.93-1.17,8-4.28,8.4S100.83,27.74,100.2,22.65Zm7.12-.88c-.5-4-1.45-4.76-2.51-4.63s-1.78,1.07-1.28,5.1S105,27.14,106,27,107.83,25.82,107.32,21.77Z"/><path d="M113.37,26.54c3.28-3.81,5.43-6.8,5.16-8.94a1.85,1.85,0,0,0-2.18-1.85A3.59,3.59,0,0,0,114,17.49l-2.17-1.67a6.22,6.22,0,0,1,4.62-2.89A4.53,4.53,0,0,1,121.9,17c.32,2.54-1.52,5.61-3.5,8.17a24.21,24.21,0,0,1,2.38-.5l2.72-.33.37,3-10.24,1.27Z"/><path d="M126.47,24.07l3.14-.39-1-8.4-2.72.34-.28-2.18a9.92,9.92,0,0,0,3.49-1.79l2.6-.32,1.48,11.91,2.66-.33.36,2.86-9.34,1.16Z"/><path d="M24.43,57.6c2.12-4.56,3.38-8,2.54-10a1.85,1.85,0,0,0-2.6-1.18,3.59,3.59,0,0,0-1.77,2.31l-2.53-1a6.23,6.23,0,0,1,3.66-4,4.53,4.53,0,0,1,6.32,2.42c1,2.36.06,5.82-1.15,8.82a19.32,19.32,0,0,1,2.15-1.12l2.53-1.07,1.16,2.77-9.52,4Z"/><path d="M33.88,47.68c-2-4.72-1-7.87,1.89-9.08s5.86.31,7.83,5,1,8-1.84,9.24S35.87,52.4,33.88,47.68Zm6.62-2.79c-1.57-3.74-2.69-4.18-3.67-3.77s-1.42,1.51.15,5.26,2.73,4.32,3.71,3.91S42.09,48.66,40.5,44.89Z"/><path d="M47.62,47.85c2.12-4.56,3.38-8,2.54-10a1.85,1.85,0,0,0-2.6-1.19A3.61,3.61,0,0,0,45.79,39l-2.53-1a6.25,6.25,0,0,1,3.66-4,4.54,4.54,0,0,1,6.32,2.42c1,2.36.06,5.82-1.15,8.82A21.17,21.17,0,0,1,54.24,44L56.77,43l1.16,2.76-9.51,4Z"/><path d="M57.08,37.92c-2-4.72-1-7.86,1.88-9.08s5.86.31,7.83,5,1.06,8-1.84,9.24S59.06,42.64,57.08,37.92Zm6.61-2.78C62.12,31.39,61,31,60,31.36s-1.42,1.52.15,5.26,2.73,4.32,3.71,3.91S65.28,38.9,63.69,35.14Z"/></svg>