<svg id="圖層_1" data-name="圖層 1" xmlns="http://www.w3.org/2000/svg" viewBox="0 0 229.78 132.7"><defs><style>.cls-1,.cls-2{fill:#fff;stroke-linecap:round;stroke-linejoin:round;stroke-width:2.74px;}.cls-1{stroke:#fff;}.cls-2{stroke:#211815;}</style></defs><polygon class="cls-1" points="112.61 104.1 47.46 100.5 15.27 66.41 40.97 23.9 123.13 19.58 193.78 26.72 228.41 58.73 204.29 96.91 135.03 104.38 123.39 131.33 112.61 104.1"/><path d="M125.09,49.54c0-2.88-2-4.38-4.7-4.38s-4.57,1.37-6.59,3.4l-6.4-5.88a19,19,0,0,1,14.43-6.85c8.09,0,14.42,3.85,14.42,12.92S125.09,60.5,125.94,69.12H115.82C114.25,59.07,125.09,54.89,125.09,49.54ZM113.93,80.41a6.92,6.92,0,1,1,6.92,7.24A6.9,6.9,0,0,1,113.93,80.41Z"/><polygon class="cls-2" points="12.07 19.11 1.37 37.69 16.94 52.08 37.5 49.99 58.85 33.97 71.06 32.9 84.15 21.08 79.22 2.63 56.13 1.37 37.38 13.42 12.07 19.11"/><path d="M24.43,39.68c2.12-4.56,3.38-8,2.54-10a1.85,1.85,0,0,0-2.6-1.18,3.57,3.57,0,0,0-1.77,2.3l-2.53-1a6.23,6.23,0,0,1,3.66-4,4.53,4.53,0,0,1,6.32,2.42c1,2.36.06,5.81-1.15,8.82a21.32,21.32,0,0,1,2.15-1.13l2.53-1.06,1.16,2.77-9.52,4Z"/><path d="M33.88,29.76c-2-4.72-1-7.87,1.89-9.09s5.86.31,7.83,5,1,8-1.84,9.24S35.87,34.48,33.88,29.76ZM40.5,27c-1.57-3.74-2.69-4.18-3.67-3.77s-1.42,1.51.15,5.25,2.73,4.32,3.71,3.91S42.09,30.73,40.5,27Z"/><path d="M47.62,29.92c2.12-4.56,3.38-8,2.54-10a1.85,1.85,0,0,0-2.6-1.18A3.57,3.57,0,0,0,45.79,21l-2.53-1a6.23,6.23,0,0,1,3.66-4,4.53,4.53,0,0,1,6.32,2.42c1,2.36.06,5.81-1.15,8.82a19.32,19.32,0,0,1,2.15-1.12L56.77,25l1.16,2.77-9.51,4Z"/><path d="M59.56,24l2.91-1.23L59.19,15,56.66,16l-.85-2a10.08,10.08,0,0,0,2.87-2.66l2.42-1,4.65,11.06,2.47-1L69.34,23l-8.67,3.64Z"/></svg>