<svg id="圖層_1" data-name="圖層 1" xmlns="http://www.w3.org/2000/svg" xmlns:xlink="http://www.w3.org/1999/xlink" viewBox="0 0 592.96 476.72"><defs><style>.cls-1,.cls-10,.cls-11,.cls-15,.cls-2,.cls-3,.cls-4,.cls-5,.cls-6,.cls-7,.cls-8,.cls-9{fill:none;}.cls-10,.cls-11,.cls-13,.cls-14,.cls-15,.cls-2,.cls-3,.cls-4,.cls-5,.cls-6,.cls-7,.cls-8,.cls-9{stroke:#211815;}.cls-10,.cls-11,.cls-15,.cls-2,.cls-3,.cls-4,.cls-5,.cls-6,.cls-7,.cls-8,.cls-9{stroke-linecap:round;}.cls-2{stroke-width:3.5px;}.cls-10,.cls-11,.cls-2,.cls-3,.cls-4,.cls-5,.cls-6,.cls-7,.cls-8,.cls-9{stroke-dasharray:0 6.5;}.cls-3{stroke-width:3.25px;}.cls-13,.cls-14,.cls-4{stroke-width:3px;}.cls-5{stroke-width:2.75px;}.cls-6{stroke-width:2.5px;}.cls-7{stroke-width:2.25px;}.cls-8{stroke-width:2px;}.cls-9{stroke-width:1.75px;}.cls-10{stroke-width:1.5px;}.cls-11{stroke-width:1.25px;}.cls-12{fill:#fff;}.cls-13,.cls-14{stroke-miterlimit:10;}.cls-13{fill:url(#起伏的細點);}.cls-14{fill:url(#起伏的細點-3);}.cls-15{stroke-linejoin:round;stroke-width:17px;}</style><pattern id="起伏的細點" data-name="起伏的細點" width="83" height="65" patternTransform="translate(147.49 176.31)" patternUnits="userSpaceOnUse" viewBox="0 0 83 65"><rect class="cls-1" width="83" height="65"/><line class="cls-2" x1="83" y1="65" x2="83" y2="130.5"/><line class="cls-2" y1="65" y2="130.5"/><line class="cls-3" x1="4.61" y1="61.75" x2="4.61" y2="130.5"/><line class="cls-4" x1="9.22" y1="65" x2="9.22" y2="130.5"/><line class="cls-5" x1="13.83" y1="61.75" x2="13.83" y2="130.5"/><line class="cls-6" x1="18.45" y1="65" x2="18.45" y2="130.5"/><line class="cls-7" x1="23.06" y1="61.75" x2="23.06" y2="130.5"/><line class="cls-8" x1="27.67" y1="65" x2="27.67" y2="130.5"/><line class="cls-9" x1="32.28" y1="61.75" x2="32.28" y2="130.5"/><line class="cls-10" x1="36.89" y1="65" x2="36.89" y2="130.5"/><line class="cls-11" x1="41.5" y1="61.75" x2="41.5" y2="130.5"/><line class="cls-2" x1="83" y1="65" x2="83" y2="130.5"/><line class="cls-3" x1="78.39" y1="61.75" x2="78.39" y2="130.5"/><line class="cls-4" x1="73.78" y1="65" x2="73.78" y2="130.5"/><line class="cls-5" x1="69.17" y1="61.75" x2="69.17" y2="130.5"/><line class="cls-6" x1="64.55" y1="65" x2="64.55" y2="130.5"/><line class="cls-7" x1="59.94" y1="61.75" x2="59.94" y2="130.5"/><line class="cls-8" x1="55.33" y1="65" x2="55.33" y2="130.5"/><line class="cls-9" x1="50.72" y1="61.75" x2="50.72" y2="130.5"/><line class="cls-10" x1="46.11" y1="65" x2="46.11" y2="130.5"/><line class="cls-2" y1="65" y2="130.5"/><line class="cls-2" x1="83" x2="83" y2="65.5"/><line class="cls-2" y2="65.5"/><line class="cls-3" x1="4.61" y1="-3.25" x2="4.61" y2="65.5"/><line class="cls-4" x1="9.22" x2="9.22" y2="65.5"/><line class="cls-5" x1="13.83" y1="-3.25" x2="13.83" y2="65.5"/><line class="cls-6" x1="18.45" x2="18.45" y2="65.5"/><line class="cls-7" x1="23.06" y1="-3.25" x2="23.06" y2="65.5"/><line class="cls-8" x1="27.67" x2="27.67" y2="65.5"/><line class="cls-9" x1="32.28" y1="-3.25" x2="32.28" y2="65.5"/><line class="cls-10" x1="36.89" x2="36.89" y2="65.5"/><line class="cls-11" x1="41.5" y1="-3.25" x2="41.5" y2="65.5"/><line class="cls-2" x1="83" x2="83" y2="65.5"/><line class="cls-3" x1="78.39" y1="-3.25" x2="78.39" y2="65.5"/><line class="cls-4" x1="73.78" x2="73.78" y2="65.5"/><line class="cls-5" x1="69.17" y1="-3.25" x2="69.17" y2="65.5"/><line class="cls-6" x1="64.55" x2="64.55" y2="65.5"/><line class="cls-7" x1="59.94" y1="-3.25" x2="59.94" y2="65.5"/><line class="cls-8" x1="55.33" x2="55.33" y2="65.5"/><line class="cls-9" x1="50.72" y1="-3.25" x2="50.72" y2="65.5"/><line class="cls-10" x1="46.11" x2="46.11" y2="65.5"/><line class="cls-2" y2="65.5"/><line class="cls-2" x1="83" y1="-65" x2="83" y2="0.5"/><line class="cls-2" y1="-65" y2="0.5"/><line class="cls-3" x1="4.61" y1="-68.25" x2="4.61" y2="0.5"/><line class="cls-4" x1="9.22" y1="-65" x2="9.22" y2="0.5"/><line class="cls-5" x1="13.83" y1="-68.25" x2="13.83" y2="0.5"/><line class="cls-6" x1="18.45" y1="-65" x2="18.45" y2="0.5"/><line class="cls-7" x1="23.06" y1="-68.25" x2="23.06" y2="0.5"/><line class="cls-8" x1="27.67" y1="-65" x2="27.67" y2="0.5"/><line class="cls-9" x1="32.28" y1="-68.25" x2="32.28" y2="0.5"/><line class="cls-10" x1="36.89" y1="-65" x2="36.89" y2="0.5"/><line class="cls-11" x1="41.5" y1="-68.25" x2="41.5" y2="0.5"/><line class="cls-2" x1="83" y1="-65" x2="83" y2="0.5"/><line class="cls-3" x1="78.39" y1="-68.25" x2="78.39" y2="0.5"/><line class="cls-4" x1="73.78" y1="-65" x2="73.78" y2="0.5"/><line class="cls-5" x1="69.17" y1="-68.25" x2="69.17" y2="0.5"/><line class="cls-6" x1="64.55" y1="-65" x2="64.55" y2="0.5"/><line class="cls-7" x1="59.94" y1="-68.25" x2="59.94" y2="0.5"/><line class="cls-8" x1="55.33" y1="-65" x2="55.33" y2="0.5"/><line class="cls-9" x1="50.72" y1="-68.25" x2="50.72" y2="0.5"/><line class="cls-10" x1="46.11" y1="-65" x2="46.11" y2="0.5"/><line class="cls-2" y1="-65" y2="0.5"/></pattern><pattern id="起伏的細點-3" data-name="起伏的細點" width="83" height="65" patternTransform="translate(174.54 65.67)" patternUnits="userSpaceOnUse" viewBox="0 0 83 65"><rect class="cls-1" width="83" height="65"/><line class="cls-2" x1="83" y1="65" x2="83" y2="130.5"/><line class="cls-2" y1="65" y2="130.5"/><line class="cls-3" x1="4.61" y1="61.75" x2="4.61" y2="130.5"/><line class="cls-4" x1="9.22" y1="65" x2="9.22" y2="130.5"/><line class="cls-5" x1="13.83" y1="61.75" x2="13.83" y2="130.5"/><line class="cls-6" x1="18.45" y1="65" x2="18.45" y2="130.5"/><line class="cls-7" x1="23.06" y1="61.75" x2="23.06" y2="130.5"/><line class="cls-8" x1="27.67" y1="65" x2="27.67" y2="130.5"/><line class="cls-9" x1="32.28" y1="61.75" x2="32.28" y2="130.5"/><line class="cls-10" x1="36.89" y1="65" x2="36.89" y2="130.5"/><line class="cls-11" x1="41.5" y1="61.75" x2="41.5" y2="130.5"/><line class="cls-2" x1="83" y1="65" x2="83" y2="130.5"/><line class="cls-3" x1="78.39" y1="61.75" x2="78.39" y2="130.5"/><line class="cls-4" x1="73.78" y1="65" x2="73.78" y2="130.5"/><line class="cls-5" x1="69.17" y1="61.75" x2="69.17" y2="130.5"/><line class="cls-6" x1="64.55" y1="65" x2="64.55" y2="130.5"/><line class="cls-7" x1="59.94" y1="61.75" x2="59.94" y2="130.5"/><line class="cls-8" x1="55.33" y1="65" x2="55.33" y2="130.5"/><line class="cls-9" x1="50.72" y1="61.75" x2="50.72" y2="130.5"/><line class="cls-10" x1="46.11" y1="65" x2="46.11" y2="130.5"/><line class="cls-2" y1="65" y2="130.5"/><line class="cls-2" x1="83" x2="83" y2="65.5"/><line class="cls-2" y2="65.5"/><line class="cls-3" x1="4.61" y1="-3.25" x2="4.61" y2="65.5"/><line class="cls-4" x1="9.22" x2="9.22" y2="65.5"/><line class="cls-5" x1="13.83" y1="-3.25" x2="13.83" y2="65.5"/><line class="cls-6" x1="18.45" x2="18.45" y2="65.5"/><line class="cls-7" x1="23.06" y1="-3.25" x2="23.06" y2="65.5"/><line class="cls-8" x1="27.67" x2="27.67" y2="65.5"/><line class="cls-9" x1="32.28" y1="-3.25" x2="32.28" y2="65.5"/><line class="cls-10" x1="36.89" x2="36.89" y2="65.5"/><line class="cls-11" x1="41.5" y1="-3.25" x2="41.5" y2="65.5"/><line class="cls-2" x1="83" x2="83" y2="65.5"/><line class="cls-3" x1="78.39" y1="-3.25" x2="78.39" y2="65.5"/><line class="cls-4" x1="73.78" x2="73.78" y2="65.5"/><line class="cls-5" x1="69.17" y1="-3.25" x2="69.17" y2="65.5"/><line class="cls-6" x1="64.55" x2="64.55" y2="65.5"/><line class="cls-7" x1="59.94" y1="-3.25" x2="59.94" y2="65.5"/><line class="cls-8" x1="55.33" x2="55.33" y2="65.5"/><line class="cls-9" x1="50.72" y1="-3.25" x2="50.72" y2="65.5"/><line class="cls-10" x1="46.11" x2="46.11" y2="65.5"/><line class="cls-2" y2="65.5"/><line class="cls-2" x1="83" y1="-65" x2="83" y2="0.5"/><line class="cls-2" y1="-65" y2="0.5"/><line class="cls-3" x1="4.61" y1="-68.25" x2="4.61" y2="0.5"/><line class="cls-4" x1="9.22" y1="-65" x2="9.22" y2="0.5"/><line class="cls-5" x1="13.83" y1="-68.25" x2="13.83" y2="0.5"/><line class="cls-6" x1="18.45" y1="-65" x2="18.45" y2="0.5"/><line class="cls-7" x1="23.06" y1="-68.25" x2="23.06" y2="0.5"/><line class="cls-8" x1="27.67" y1="-65" x2="27.67" y2="0.5"/><line class="cls-9" x1="32.28" y1="-68.25" x2="32.28" y2="0.5"/><line class="cls-10" x1="36.89" y1="-65" x2="36.89" y2="0.5"/><line class="cls-11" x1="41.5" y1="-68.25" x2="41.5" y2="0.5"/><line class="cls-2" x1="83" y1="-65" x2="83" y2="0.5"/><line class="cls-3" x1="78.39" y1="-68.25" x2="78.39" y2="0.5"/><line class="cls-4" x1="73.78" y1="-65" x2="73.78" y2="0.5"/><line class="cls-5" x1="69.17" y1="-68.25" x2="69.17" y2="0.5"/><line class="cls-6" x1="64.55" y1="-65" x2="64.55" y2="0.5"/><line class="cls-7" x1="59.94" y1="-68.25" x2="59.94" y2="0.5"/><line class="cls-8" x1="55.33" y1="-65" x2="55.33" y2="0.5"/><line class="cls-9" x1="50.72" y1="-68.25" x2="50.72" y2="0.5"/><line class="cls-10" x1="46.11" y1="-65" x2="46.11" y2="0.5"/><line class="cls-2" y1="-65" y2="0.5"/></pattern></defs><polygon class="cls-12" points="61.51 30.13 32.1 30.13 0 107.84 43.92 153.45 0 188.93 0 352.79 30.75 396.72 13.52 440.64 61.51 475.55 137.4 459.79 179.63 476.71 254.53 476.71 299.32 456.26 376.03 476.71 446.79 472.05 479.78 449.93 517.66 467.37 564.25 464.29 592.97 425.44 562.56 381.51 592.97 339.28 592.97 163.59 565.93 126.42 592.97 70.67 559.18 8.16 439.23 8.16 395.31 21.68 319.29 0 116.57 0 61.51 30.13"/><path class="cls-13" d="M538.42,369.92c-8.32,2.46-12.31,6.45-14.77,14.76a3.51,3.51,0,0,1-6.72,0c-2.46-8.31-6.44-12.3-14.76-14.76a3.51,3.51,0,0,1,0-6.72c8.32-2.46,12.3-6.45,14.76-14.76a3.51,3.51,0,0,1,6.72,0c2.46,8.31,6.45,12.3,14.77,14.76A3.52,3.52,0,0,1,538.42,369.92Z"/><circle class="cls-14" cx="72.51" cy="87.57" r="7.52"/><path class="cls-15" d="M432.12,412.85s7.05-41,48.81-39.8"/><path class="cls-15" d="M80,58.2s19.3-.81,23.73,20.61"/><path d="M109.52,162.52c3.38-3.21,5.65-5.77,5.65-7.83,0-1.29-.69-2-1.77-2a3.26,3.26,0,0,0-2.29,1.37l-1.76-1.83a5.57,5.57,0,0,1,4.49-2.18,4.2,4.2,0,0,1,4.44,4.44c0,2.44-2,5.11-4.08,7.3a17.53,17.53,0,0,1,2.2-.19h2.49v2.85h-9.37Z"/><path d="M122.22,157.32c0-4.87,1.93-7.26,4.78-7.26s4.8,2.43,4.8,7.26-2,7.4-4.8,7.4S122.22,162.18,122.22,157.32Zm6.52,0c0-3.86-.78-4.66-1.74-4.66s-1.73.8-1.73,4.66.77,4.78,1.73,4.78S128.74,161.19,128.74,157.32Z"/><path d="M135,162.52c3.38-3.21,5.65-5.77,5.65-7.83,0-1.29-.69-2-1.76-2a3.24,3.24,0,0,0-2.29,1.37l-1.76-1.83a5.57,5.57,0,0,1,4.49-2.18,4.2,4.2,0,0,1,4.43,4.44c0,2.44-2,5.11-4.07,7.3a17.37,17.37,0,0,1,2.2-.19h2.49v2.85H135Z"/><path d="M147.67,157.32c0-4.87,1.92-7.26,4.78-7.26s4.8,2.43,4.8,7.26-1.95,7.4-4.8,7.4S147.67,162.18,147.67,157.32Zm6.52,0c0-3.86-.78-4.66-1.74-4.66s-1.73.8-1.73,4.66.76,4.78,1.73,4.78S154.19,161.19,154.19,157.32Z"/><path d="M177.17,162.37h-6v3.89h-2.72v-3.89H160.3v-2.66h2.82v-4.27c-.22.26-.44.53-.66.76a17.67,17.67,0,0,0-2.27-1.81,14.3,14.3,0,0,0,3.67-6.25l2.71.72c-.14.44-.31.89-.49,1.33h10v2.66h-5v1.94h4.53v2.56h-4.53v2.36h6Zm-12.36-9.52a19,19,0,0,1-1.22,1.94h4.82v-1.94Zm3.6,6.86v-2.36h-2.64v2.36Z"/><path d="M189.8,161.69v.64h5.29v2.21H189.8v1.63h-2.66v-1.63h-5.07v-2.21h5.07v-.64h-6.92v-2.21h2.71v-.57h-2v-2.16h2v-1h2.42v1h1.79v-1h2.66v1h1.87v-1h2.45v1h1.42v2.16h-1.42v.57h2.8v2.21Zm5.72-6.22h-13.9V149h13.9Zm-11.36-4.06h3v-.61h-3Zm0,2.28h3v-.61h-3Zm3,5.79v-.57h-1.79v.57Zm5.69-8.68h-3.05v.61h3.05Zm0,2.28h-3.05v.61h3.05Zm-3,5.83v.57h1.87v-.57Z"/><path d="M206.88,163.34a12.91,12.91,0,0,1-5.14,2.58,12,12,0,0,0-1.55-2,14,14,0,0,0,4.84-1.49Zm9.74-3.55V162h-6.94v4.23h-2.62V162h-6.81v-2.24h6.81v-.52h-5.14v-2h5.14v-.54h-6v-2.07h3c-.14-.36-.36-.79-.52-1.12l1.25-.28h-4.51v-2.15h2.22a19.3,19.3,0,0,0-1-2.13l2.27-.79a13.76,13.76,0,0,1,1.29,2.62l-.82.3h1.31v-3H208v3h.87v-3h2.49v3h1.2L212,151a16.07,16.07,0,0,0,1-2.68l2.78.67c-.47.81-.93,1.57-1.33,2.18h2.06v2.15h-4.85l2,.51a10.72,10.72,0,0,1-.94.89h3.07v2.07h-6.16v.54H215v2h-5.34v.52Zm-10.41-6.48a8.65,8.65,0,0,1,.6,1.16l-1,.24h4.87l-.69-.21a11.47,11.47,0,0,0,.82-1.19Zm5.83,9c1.35.59,3.4,1.54,4.53,2.17l-1.93,1.42c-1-.61-3-1.65-4.41-2.34Z"/><path d="M233.74,148.84c-.14.52-.31,1-.47,1.49a11.59,11.59,0,0,0,3.89,4.4,10.42,10.42,0,0,0-1.84,2.17,13.33,13.33,0,0,1-3.23-4,13.83,13.83,0,0,1-3.54,4.14,9.05,9.05,0,0,0-1.1-1.5c0,.25,0,.65,0,.85-.06,5.61-.13,7.81-.58,8.5a2,2,0,0,1-1.3.93,8.45,8.45,0,0,1-1.94.11,7.12,7.12,0,0,0-.65-2.47c.49,0,.89.06,1.16.06a.56.56,0,0,0,.53-.31c.18-.34.25-1.69.29-5.35h-1.28c-.23,3.44-.83,6.3-2.38,8.39a7.66,7.66,0,0,0-1.87-2.1c1.69-2.4,1.8-5.95,1.84-10.55H220v-2.53h3a13.2,13.2,0,0,0-1-2.05l2.35-.93a10.88,10.88,0,0,1,1.3,2.53l-1.1.45h3.25v2.53h-4c0,.61,0,1.2,0,1.77h3.51a6.69,6.69,0,0,0-.54-.53,11.52,11.52,0,0,0,4.56-6.73Zm-3.54,11.59a37.63,37.63,0,0,1,5.36,3.5l-1.84,2.35a33.51,33.51,0,0,0-5.21-3.8Zm2.69-.26a21.53,21.53,0,0,0-3.11-2.85l1.69-1.77a21.83,21.83,0,0,1,3.24,2.66Z"/><path d="M250,156c1.18,3.44,3.29,6.22,6.63,7.57a11.8,11.8,0,0,0-2,2.62,13.37,13.37,0,0,1-6.6-7.43,12.9,12.9,0,0,1-6.54,7.43,8.65,8.65,0,0,0-2-2.36,10.89,10.89,0,0,0,6.38-7.83h-6v-2.86h6.45c.13-1.68.11-3.35.13-4.92h2.91c0,1.57,0,3.24-.18,4.92h7V156Z"/><path d="M275.76,163.21c0,1.34-.23,2.1-1,2.54a6.68,6.68,0,0,1-3.34.53,9.35,9.35,0,0,0-.87-2.73c.85,0,1.91,0,2.21,0s.42-.13.42-.43v-11.5H262.59v14.59H260V149.07h15.74ZM272.34,155h-9v-2.3h9Zm-5.77,7.73v1.2h-2.42V156.1h7.49v6.59Zm0-4.35v2.09h2.63v-2.09Z"/><path d="M289.68,156c1.18,3.44,3.29,6.22,6.64,7.57a11.54,11.54,0,0,0-2,2.62,13.38,13.38,0,0,1-6.59-7.43,13,13,0,0,1-6.55,7.43,8.43,8.43,0,0,0-2-2.36,10.85,10.85,0,0,0,6.37-7.83h-6v-2.86H286c.13-1.68.11-3.35.13-4.92h2.91c0,1.57,0,3.24-.19,4.92h7V156Z"/><path d="M315.8,162.92H309v.87c0,1.18-.24,1.77-1.09,2.13a9.24,9.24,0,0,1-3.22.34,9.35,9.35,0,0,0-.82-2.31c.75,0,1.88,0,2.15,0s.38,0,.38-.28v-.78h-7.25v-2.17h7.25v-.36a13.42,13.42,0,0,0,1.54-.93h-5.16v-1.9h7.58l.55-.13,1.47,1.42a30.8,30.8,0,0,1-2.89,1.9h6.27ZM302,159.23h-2.49v-4.16h1.31l-.31-5.68a26.18,26.18,0,0,0,3.78-1.12l1.06,1.56a17.76,17.76,0,0,1-2.33.7l0,.36h2.16v1.66h-2.07l0,.43h2.06v.76a10.67,10.67,0,0,0,1-.53c-.29-.19-.6-.38-.87-.53l1.19-1,1,.56a4.22,4.22,0,0,0,.63-.72l1.67.54a8.19,8.19,0,0,1-.9,1.1,11.91,11.91,0,0,1,1,.79l-1.28,1.14a9.58,9.58,0,0,0-.94-.83,12.28,12.28,0,0,1-1.25.83h5.41l.06-.43H310V153h2l0-.43h-1.95v-1.66h2.06l0-.43H310v-1.67h4.78c-.09,2.05-.24,4.46-.4,6.28h1.32v4.16H313V157H302Zm1.27-4.16H306c-.22-.24-.55-.6-.82-.87v.44h-2Zm5.26-3.49c-.2-.21-.5-.44-.8-.69a9.77,9.77,0,0,1-1.33.84,11.4,11.4,0,0,0-1.35-1.2,10.63,10.63,0,0,0,1.26-.64l-.84-.5,1.17-1c.3.15.63.34,1,.53a5.28,5.28,0,0,0,.56-.63l1.66.52a8.56,8.56,0,0,1-.84,1c.29.23.56.46.78.65Z"/><path d="M330.3,161.8c2,.65,4.27,1.5,5.58,2.09l-1.23,2.41a73.29,73.29,0,0,0-7.24-3l.86-1.54h-.55c-.89,2.16-2.85,3.63-7.72,4.45a7.78,7.78,0,0,0-1.33-2.49c3.22-.42,4.89-1,5.78-2h-4.92v-2.32h6c0-.23.05-.45.09-.7h-6.47v-2.4H326v-.66h-5.25v-2.3H326v-.63h-6.33v-2.41h3.26a8.44,8.44,0,0,0-.8-1.38l2.36-.95a7.36,7.36,0,0,1,1.25,2.12l-.47.21h3.55a14.87,14.87,0,0,0,1.16-2.33l2.87.7c-.36.59-.73,1.16-1.07,1.63H335v2.41h-6.34v.63h5.45v2.3h-5.45v.66h7.12v2.4h-7.43c0,.25-.06.47-.09.7h6.86v2.32Z"/><path d="M345.53,157.39V164c0,.93-.12,1.48-.69,1.83a4.19,4.19,0,0,1-2.14.36,8.08,8.08,0,0,0-.6-2c.42,0,.91,0,1.07,0s.22-.05.22-.23v-1.27l-1.38.95-.44-1a8.66,8.66,0,0,1-1.07,3.7,10,10,0,0,0-1.84-1.29,9.47,9.47,0,0,0,.91-4.83v-2.81h-.89v-3.11h.67v-5.51h6.24v5.51h.74v2.07h9.36v1.92h-9.41v-.88Zm-1.14-1.31h-3.85v.51h3.85Zm-3-1.8h.44V151.2h1.65v-.51h-2.09Zm.31,6c0,.48,0,1,0,1.5.51-.21,1.11-.47,1.75-.78v-.68l-.67.8c-.24-.25-.64-.63-1-1Zm1.71-1.9h-1.71v.86l.55-.59c.38.26.81.57,1.16.85Zm.07-4.06v-1.6h-.38v1.6Zm12.38,9.78v2H346.1v-2H348c-.13-.4-.28-.82-.4-1.16l1-.32h-1.72v-3.86H355v3.86h-2l1.35.38c-.26.38-.51.76-.73,1.1Zm-.42-8.21H346.5v-6.3h2.09v-1.31h2v1.31h.48v-1.31h2v1.31h2.31Zm-7-4h.68v-.59h-.68Zm0,2.23h.68v-.61h-.68Zm.75,6.87h3.45v-.64h-3.45Zm.53,1.6a12.27,12.27,0,0,1,.54,1.48h1.27a14.77,14.77,0,0,0,.53-1.48Zm1.52-10.7v-.59h-.58v.59Zm-.58,1.62v.61h.58v-.61Zm2.8-2.21h-.67v.59h.67Zm0,2.21h-.67v.61h.67Z"/><path d="M365.76,153.48h-7.23v-2.15h2.78a21.94,21.94,0,0,0-1-2.2l2-1a19.8,19.8,0,0,1,1.31,2.6l-1.09.61h3.21Zm-.74.59a3.22,3.22,0,0,0,1.81-3.25v-2h6.51v4c0,.55,0,.8.24.8h.52a3.26,3.26,0,0,0,.95-.15c0,.68.09,1.63.16,2.26a2.43,2.43,0,0,1-1.09.17h-.82c-2,0-2.38-.95-2.38-3.11v-1.45h-1.69a5.47,5.47,0,0,1-2.89,5,10.33,10.33,0,0,0-1.32-1.65v1.46h-5.71v-2H365Zm.05,4.65h-5.76v-2.05h5.76ZM375,157a12.51,12.51,0,0,1-2.71,5.55,13.49,13.49,0,0,0,3.46,1.08,11.25,11.25,0,0,0-1.62,2.53,12.92,12.92,0,0,1-4.05-1.71,14.43,14.43,0,0,1-4.11,1.77,11.52,11.52,0,0,0-1-2v1.07h-3.47V166h-2.21v-6.67H365v4.33a12.49,12.49,0,0,0,2.93-1,14.44,14.44,0,0,1-2.16-3.16l1.45-.53h-1.83v-2.57h7.52l.45-.09Zm-12.25,4.52h-1.22v1.56h1.22ZM368.2,159a7.91,7.91,0,0,0,1.87,2.18,8.26,8.26,0,0,0,1.62-2.18Z"/><path d="M386.5,153.48h-7.78v-2.15h2.94c-.27-.7-.67-1.54-1-2.2l2-1a18.64,18.64,0,0,1,1.31,2.6l-1.09.61h3.6Zm-7,2.62v-2h6.23v2Zm6.2,2.62h-6.2v-2.05h6.2Zm.07,6.54h-4V166h-2.22v-6.67h6.23Zm-4-3.75v1.56h1.76v-1.56Zm13.57-4.38h-3.18v9.13h-2.76v-9.13h-3v-2.72h3v-5.85h2.76v5.85h3.18Z"/><path d="M414.94,162.92h-6.76v.87c0,1.18-.24,1.77-1.09,2.13a9.21,9.21,0,0,1-3.22.34,9.32,9.32,0,0,0-.81-2.31c.74,0,1.87,0,2.14,0s.38,0,.38-.28v-.78h-7.25v-2.17h7.25v-.36a14.44,14.44,0,0,0,1.55-.93H402v-1.9h7.58l.55-.13,1.47,1.42a30.8,30.8,0,0,1-2.89,1.9h6.27Zm-13.85-3.69H398.6v-4.16h1.31l-.31-5.68a26.18,26.18,0,0,0,3.78-1.12l1.06,1.56a17.31,17.31,0,0,1-2.33.7l0,.36h2.16v1.66h-2.07l0,.43h2.05v.76a10.67,10.67,0,0,0,1-.53c-.29-.19-.6-.38-.87-.53l1.2-1,1,.56a4.22,4.22,0,0,0,.63-.72l1.68.54a9.14,9.14,0,0,1-.91,1.1,11.91,11.91,0,0,1,1,.79l-1.27,1.14a11.23,11.23,0,0,0-1-.83,12.28,12.28,0,0,1-1.25.83h5.41l.06-.43h-1.87V153h2l0-.43h-1.94v-1.66h2l0-.43h-2.2v-1.67h4.78c-.09,2.05-.24,4.46-.4,6.28h1.33v4.16h-2.62V157H401.09Zm1.27-4.16h2.77c-.22-.24-.55-.6-.82-.87v.44h-2Zm5.26-3.49a8.91,8.91,0,0,0-.8-.69,9.77,9.77,0,0,1-1.33.84,11.28,11.28,0,0,0-1.34-1.2,11.31,11.31,0,0,0,1.25-.64l-.84-.5,1.17-1c.31.15.63.34,1,.53a5.28,5.28,0,0,0,.56-.63l1.66.52a8.56,8.56,0,0,1-.84,1c.29.23.56.46.78.65Z"/><path d="M427.88,160.13v3.3c0,1.29-.24,2-1.16,2.42a8.27,8.27,0,0,1-3.33.43,10.62,10.62,0,0,0-1-2.7c.85.06,2,.06,2.36.06s.4-.07.4-.28v-3c-1.69.17-2.78.28-3.54.38l2.41.91a19.86,19.86,0,0,1-4,3.91,18.73,18.73,0,0,0-2.3-1.84,11.55,11.55,0,0,0,3.47-2.93,7,7,0,0,0-1.29.33,21.83,21.83,0,0,0-.77-2.49,8.1,8.1,0,0,0,2.55-1,22.13,22.13,0,0,0,2.25-1.24,12.19,12.19,0,0,0-3.34.48,25.28,25.28,0,0,0-.77-2.51,4.77,4.77,0,0,0,1.59-.66,20.24,20.24,0,0,0,2.19-1.37c-1.47.23-3,.42-4.37.57a9.56,9.56,0,0,0-.75-2.34A48,48,0,0,0,430.26,148l2,2.18a34.22,34.22,0,0,1-5.17,1.5l.83.57a26.18,26.18,0,0,1-2.67,1.84l2.36-.09a24.32,24.32,0,0,0,1.87-1.58l1.95,1.85a35.55,35.55,0,0,1-5.36,3.59l3.69-.27c-.31-.36-.6-.74-.88-1.06L431,155.4a43.2,43.2,0,0,1,3.48,4.35l-2.25,1.44c-.24-.4-.54-.87-.91-1.37Zm2.78.21a23,23,0,0,1,4,3.36l-2.37,1.63a23.69,23.69,0,0,0-3.85-3.53Z"/><path d="M441.8,157.89a1.88,1.88,0,0,1-1.94-1.9,1.9,1.9,0,0,1,2-1.9c1.43,0,2.2,1.1,2.2,2.85a4.91,4.91,0,0,1-3.86,4.76l-.67-1.82c1.4-.4,2.24-1.18,2.38-2Z"/><path d="M465.29,150.69v2.64h-9.67a22.11,22.11,0,0,1-2.09,3.7v9.22h-2.67v-6.2a14.09,14.09,0,0,1-1.35,1.07,18.47,18.47,0,0,0-1.25-2.7,13.59,13.59,0,0,0,4.34-5.09h-3.69v-2.64h4.85a23.33,23.33,0,0,0,.75-2.49l2.76.68c-.18.61-.38,1.2-.58,1.81Zm-4.13,12.53h4v2.55H454.31v-2.55h4.18v-3.76H455v-2.54h3.49v-2.87h2.67v2.87h3.34v2.54h-3.34Z"/><path d="M484.79,148.71v17.55h-2.51v-.89H471.47v.89h-2.38V148.71Zm-2.51,14.61V150.76H471.47v12.56Zm-1.27-3.9h1v1.43h-2.2v.87c0,.84-.16,1.12-.73,1.28a8.41,8.41,0,0,1-2.27.17,6,6,0,0,0-.49-1.33c.38,0,.95,0,1.11,0s.23-.06.23-.23v-.78h-2.58a7.39,7.39,0,0,1,.93,1.37l-1.74.87a8.9,8.9,0,0,0-1-1.69l1.15-.55h-2.69v-1.43h6v-.36l-5.59.16-.08-1.41,3.79,0v-.44H472.3v-3.91h3.46V153h-3.84V151.6h3.84V151h2.12v.57h3.87V153h-3.87v.46h3.49v3.91h-.62a9.32,9.32,0,0,1,1.26,1.27Zm-6.75-4.5h1.5v-.42h-1.5Zm1.5,1.43v-.44h-1.5v.44Zm2.12-1.85v.42h1.42v-.42Zm0,1.41v.44h1.42v-.44Zm0,1.48v.44l1,0,0,0,.59-.4Zm1.91,2h.67c-.13-.15-.25-.3-.4-.45l-.27,0Z"/><path d="M494.84,150c-.44,1.67-1,3.81-1.47,5.28a6,6,0,0,1,1.18,3.72c0,1.33-.26,2.13-.88,2.58a2.53,2.53,0,0,1-1.09.44,9.47,9.47,0,0,1-1.16.06,7,7,0,0,0-.29-1.71v6h-2.29V149h3.91l.36-.09Zm-3.71,9.76h.38a.68.68,0,0,0,.47-.15c.19-.15.26-.46.26-1a5,5,0,0,0-1.05-3.08c.27-1.12.59-2.73.83-4h-.89Zm14.19-4c-.61.4-1.3.82-2,1.18a16.72,16.72,0,0,0,2.51,4.94,9.35,9.35,0,0,0-1.67,1.77,21,21,0,0,1-2.4-4.87c.53,2.66.15,5.26-.73,6.23a2.62,2.62,0,0,1-2.36,1.14c-.42,0-1,0-1.49,0a5.91,5.91,0,0,0-.64-2.44,13.79,13.79,0,0,0,1.68.1.87.87,0,0,0,.92-.59,3.51,3.51,0,0,0,.42-1.65,19.43,19.43,0,0,1-4.22,2.37,9,9,0,0,0-1.54-1.92,14.16,14.16,0,0,0,5.6-3c-.06-.25-.11-.49-.17-.74a20.6,20.6,0,0,1-3.25,2.11,9.42,9.42,0,0,0-1.38-1.92,13,13,0,0,0,3.89-2.09,7.39,7.39,0,0,0-.47-.76,19.54,19.54,0,0,1-2.68,1.56,13.76,13.76,0,0,0-1.49-1.94,15.34,15.34,0,0,0,3.31-1.67H494.6V151.1h2.51a11.78,11.78,0,0,0-1.51-1.65l1.93-1.23a9.57,9.57,0,0,1,2.14,2.26l-.87.62h1.4a14.67,14.67,0,0,0,1.51-2.85l2.52.75c-.45.75-.92,1.5-1.36,2.1h2.29v2.36h-4.71a6.72,6.72,0,0,1-.71.7,9.33,9.33,0,0,1,1.08,1.67,20.52,20.52,0,0,0,2.89-2Z"/><path d="M125.49,183.84v9.88h-2.78v-.9H119.2v5.82h-2.8v-5.82h-3.49v1h-2.65v-10h6.14v-3.25h2.8v3.25Zm-9.09,6.27v-3.56h-3.49v3.56Zm6.31,0v-3.56H119.2v3.56Z"/><path d="M141.22,195.2c1.6.68,3.36,1.5,4.43,2.07l-3,1.37a30.39,30.39,0,0,0-4.35-2.32L140,195.2h-5.32l1.89.91a23,23,0,0,1-5.71,2.62,21,21,0,0,0-2.09-2.13,21.1,21.1,0,0,0,4.62-1.4h-2.24V187c-.18.15-.36.28-.56.42a8.86,8.86,0,0,0-1.93-2,12.89,12.89,0,0,0,4.75-4.88l2.85.59-.36.59h2.85l.42-.12,1.83,1.24a22.66,22.66,0,0,1-1.41,2.09h4.16V195.2Zm-6.82-11.36a13.37,13.37,0,0,1-1,1.14h3c.31-.36.58-.76.86-1.14Zm6.54,3.25h-7.19v.68h7.19Zm0,3.34v-.7h-7.19v.7Zm-7.19,2v.7h7.19v-.7Z"/><path d="M160.82,195.71c1.56.59,3.19,1.25,4.21,1.73l-3.23,1.2a28.45,28.45,0,0,0-4.42-2.07l1.55-.86h-4.44l1.36.65a22,22,0,0,1-5.74,2.35,14.78,14.78,0,0,0-1.91-2,23.47,23.47,0,0,0,4.2-1h-1.87v-7.54H163v7.54Zm4.08-8H148.37v-1.86h6.94v-.45h-5.05v-1.6h5.05v-.47h-5.89v-1.79h5.89v-.93H158v.93h6.19v1.79H158v.47h5.32v1.6H158v.45h6.86Zm-11.81,2.53h7.2v-.53h-7.2Zm0,2h7.2v-.54h-7.2Zm0,2h7.2v-.55h-7.2Z"/><path d="M184.27,183.5s0,.87,0,1.19c-.22,8.46-.4,11.53-1.16,12.58a2.6,2.6,0,0,1-1.93,1.21,15.11,15.11,0,0,1-2.94.08,6.51,6.51,0,0,0-.88-2.68,27,27,0,0,0,2.75.12.92.92,0,0,0,.8-.35c.52-.58.74-3.38.89-9.65h-3.46a18.36,18.36,0,0,1-1.54,2.83,17.8,17.8,0,0,0-1.49-1.17v9h-4.76v1.35h-2.38V183.69h2.07a28.61,28.61,0,0,0,.4-3.1l2.89.42c-.31.93-.62,1.88-.91,2.68h2.69v2.52a21,21,0,0,0,2.16-5.56l2.55.62c-.2.74-.44,1.48-.69,2.23Zm-11.36,2.58h-2.38v2.56h2.38Zm0,8.21V191h-2.38v3.27Zm6-.57a48.78,48.78,0,0,0-2.38-4.43l2.07-1.22c.81,1.3,2,3.1,2.54,4.22Z"/><path d="M194,192.9c-2.18.87-4.52,1.77-6.39,2.45l-1.09-2.64c.67-.19,1.49-.42,2.38-.7v-6.92h-1.84v-2.54h6.31v2.54h-1.8v6.06l2-.64Zm7,1.86a30,30,0,0,1,3.4,2.28l-2.09,1.62a27.88,27.88,0,0,0-3.45-2.55l1.8-1.35H196.6l1.76,1.35a17.69,17.69,0,0,1-4.76,2.51,15.08,15.08,0,0,0-1.6-1.88,15.15,15.15,0,0,0,3.94-2h-1.58V184.58h2.8c.05-.34.11-.69.15-1h-3.6v-2.3H204.1v2.3h-3.81c-.13.34-.26.69-.37,1h3.51v10.18Zm-4.2-7.35h4v-.86h-4Zm0,2.68h4v-.86h-4Zm0,2.7h4v-.86h-4Z"/><path d="M221.43,181.54v16.83h-2.82v-1.12H210.8v1.12h-2.67V181.54Zm-10.63,2.7v1.65h7.81v-1.65Zm0,4.25v1.75h7.81v-1.75Zm7.81,6.06v-1.71H210.8v1.71Z"/><path d="M242.44,190.89s0,.66-.07,1c-.27,3.59-.58,5.23-1.12,5.85a2.1,2.1,0,0,1-1.48.8,13.3,13.3,0,0,1-2.14.08,6.38,6.38,0,0,0-.6-2.26l-.38.15a12.22,12.22,0,0,0-1-2.6l1.82-.63a11,11,0,0,1,1,2.51l-1.18.44c.46,0,.86,0,1.11,0a.7.7,0,0,0,.6-.22c.26-.25.46-1.05.62-2.78h-10.9l-.66.42,1.82.63a8.63,8.63,0,0,1-2.15,4.33l-2.07-1.39a6.83,6.83,0,0,0,1.89-3.27,9.27,9.27,0,0,1-.82.44,15.5,15.5,0,0,0-1.38-2.41,16.08,16.08,0,0,0,6.58-5.78h-5.47v-2.39h2.76a16.82,16.82,0,0,0-1-2.22l2.29-.94a14.1,14.1,0,0,1,1.35,2.78l-.89.38h2.31a22.37,22.37,0,0,0,1.25-3.25l2.67.78c-.29.84-.62,1.65-1,2.47h3.49c-.22,1.16-.47,2.47-.73,3.53h2.07c-.2,1.16-.47,2.47-.72,3.54Zm-10,3.34a14.5,14.5,0,0,1,.45,3.51l-2.25.31a15.54,15.54,0,0,0-.33-3.55Zm.32-4.52c-.34.4-.71.8-1.07,1.18h6.4c.09-.36.18-.76.27-1.18Zm2.33,4.14a15.69,15.69,0,0,1,.83,3.11l-2.1.56a18.05,18.05,0,0,0-.75-3.2Zm.07-7.64c-.22.38-.43.76-.67,1.14h2.25l.26-1.14Z"/><path d="M256.57,194.17c2,.65,4.27,1.5,5.58,2.09l-1.23,2.41a73.29,73.29,0,0,0-7.24-3l.86-1.54H254c-.89,2.17-2.85,3.63-7.72,4.45a8,8,0,0,0-1.33-2.49c3.22-.42,4.89-1,5.78-2H245.8v-2.32h6c0-.22.05-.45.09-.7h-6.47v-2.39h6.85v-.67H247v-2.3h5.25v-.62h-6.32v-2.42h3.25a8.88,8.88,0,0,0-.8-1.38l2.36-1a7.54,7.54,0,0,1,1.26,2.13l-.48.2h3.55a14.87,14.87,0,0,0,1.16-2.33l2.87.7c-.36.59-.73,1.16-1.07,1.63h3.29v2.42H255v.62h5.45v2.3H255v.67h7.12v2.39h-7.43c0,.25-.06.48-.09.7h6.87v2.32Z"/><path d="M281.66,189.1h-1.29v6.48c0,1.23-.15,2-.87,2.39a5.29,5.29,0,0,1-2.8.48,9.68,9.68,0,0,0-.69-2.66c.6,0,1.33,0,1.56,0s.29-.06.29-.27V189.1h-1.29v-1.6h-2.51v11h-2.29v-11h-2.25v-1.12c-.24.53-.51,1.09-.8,1.62v6.15c.91-1.12.95-2.81.95-5.75h1.81c0,3.57-.18,5.92-1.58,7.37a5.27,5.27,0,0,0-1.18-1.58v4.45H266.3v-7c-.23.28-.49.55-.72.79a18.26,18.26,0,0,0-1.4-2.58,14.58,14.58,0,0,0,3.34-5.15l2,.69V185h2.25v-4.39h2.29V185h2.58v1.67h5Zm-11.92-7.62a19.11,19.11,0,0,1-3.87,4.81,15,15,0,0,0-1.35-2.07,11.83,11.83,0,0,0,2.84-3.63Zm5.65,3.21a17.67,17.67,0,0,0-1.25-2.43l1.58-.85a16,16,0,0,1,1.31,2.24V182h4.34v2.41H277v-.65Zm1,10.62c-1.68,0-2-.66-2-2.56V188.4h1.83v4.39c0,.51,0,.66.09.66h.26a1.86,1.86,0,0,0,.6-.11c0,.49.11,1.4.16,1.84a1.81,1.81,0,0,1-.78.13Z"/><path d="M291.17,185.85h-7.23v-2.14h2.78a22.11,22.11,0,0,0-1-2.21l2-1a19.29,19.29,0,0,1,1.31,2.61l-1.09.61h3.21Zm-.74.59a3.22,3.22,0,0,0,1.81-3.25v-2h6.51v4c0,.55,0,.79.24.79h.52a3,3,0,0,0,.95-.15c0,.69.09,1.64.16,2.26a2.3,2.3,0,0,1-1.09.17h-.82c-2,0-2.38-.95-2.38-3.11v-1.44h-1.69a5.47,5.47,0,0,1-2.89,4.95,10.79,10.79,0,0,0-1.32-1.65v1.46h-5.71v-2.05h5.71Zm.05,4.65h-5.76V189h5.76Zm10-1.72a12.47,12.47,0,0,1-2.71,5.54,13.9,13.9,0,0,0,3.46,1.09,11,11,0,0,0-1.62,2.52,12.92,12.92,0,0,1-4.05-1.71,14.43,14.43,0,0,1-4.11,1.77,11.75,11.75,0,0,0-1-2v1.06H287v.76h-2.21v-6.67h5.69v4.33a12.13,12.13,0,0,0,2.92-1,14.55,14.55,0,0,1-2.16-3.16l1.45-.53h-1.83v-2.56h7.52l.46-.1Zm-12.25,4.52H287v1.56h1.22Zm5.42-2.57a8.1,8.1,0,0,0,1.87,2.19,8.48,8.48,0,0,0,1.62-2.19Z"/><path d="M311.48,185.85H303.7v-2.14h2.95c-.28-.71-.68-1.54-1-2.21l2-1A18.18,18.18,0,0,1,309,183.1l-1.09.61h3.6Zm-7,2.62v-2.05h6.24v2.05Zm6.2,2.62h-6.2V189h6.2Zm.07,6.54h-4v.76h-2.22v-6.67h6.23Zm-4-3.74v1.56h1.76v-1.56Zm13.57-4.39h-3.18v9.14h-2.76V189.5h-3v-2.72h3v-5.85h2.76v5.85h3.18Z"/><path d="M326.74,186.46a3.17,3.17,0,1,1-3,3.17A3.09,3.09,0,0,1,326.74,186.46Zm0,4.75a1.58,1.58,0,1,0-1.51-1.58A1.54,1.54,0,0,0,326.74,191.21Z"/><path d="M350,191.3v2.06H333.09V191.3h4a6.45,6.45,0,0,0-.37-.83l.84-.21h-1.82v-3.93h11.85v3.93h-.91a11.76,11.76,0,0,1-.67,1Zm-9.83-7.79h-6.36V181.6h6.36v-1h2.69v1h6.51v1.91h-6.51V184h5.51v1.86H335V184h5.14Zm-4.76,10.32H348v4.81h-2.72v-.46H338v.46h-2.6Zm2.6,1.79v.76h7.27v-.76Zm.29-7h6.67V188h-6.67Zm1.13,1.64a7.4,7.4,0,0,1,.43,1h3.45c.13-.34.28-.7.39-1Z"/><path d="M366.35,187.71c0,.71,0,1.5-.09,2.36.56,2.7,1.65,5.13,3.47,6.38a9.17,9.17,0,0,0-1.65,2.32,9.74,9.74,0,0,1-2.73-4.27,12,12,0,0,1-2.61,4.33,8.69,8.69,0,0,0-1.42-1.54v.64h-5.6v.71h-2v-5.59c-.18.25-.35.46-.53.67a14.5,14.5,0,0,0-1-1.92,13,13,0,0,0,2.16-3.52h-1.45v-3.8h4v3.8h-1.33l.67.25c-.11.29-.23.59-.36.87h1.31a7.56,7.56,0,0,0-.33-.76l1-.38h-.39v-3.8h3.9v2.95a23.71,23.71,0,0,0,1.47-6.86l2.42.4c-.09.76-.18,1.5-.31,2.24h2.78l.35-.09,1.62.47a52.05,52.05,0,0,1-1.22,5.61l-1.89-.65c.18-.76.36-1.79.53-2.85h-2.66c0,.25-.13.49-.18.72h2.07Zm-12-4.37h-2v-1.91h2v-.86h2.22v3.59h-2.22Zm0,3.61h1v-1.16h-1Zm2.74,4.71v-.47h-1.38v.47Zm-1.38,2.23h1.38v-.55h-1.38Zm0,2.24h1.38v-.57h-1.38Zm4.33-12h-2.26v-3.59h2.26v.84h1.79v1.92h-1.79Zm1.27,12.35c2.49-2.81,2.74-6.48,2.74-8.85v-.5a14.12,14.12,0,0,1-1.22,3,13.79,13.79,0,0,0-2-1.73l.08-.14h-2.26a7.92,7.92,0,0,1,.48,1.14h2.34v1.79h-2.29v.47h1.89v1.68h-1.89v.55h2.05v1.67h-2.05v.57h2.11Zm-2.4-9.6h.91v-1.1h-.91Z"/><path d="M379.79,180.84h2.42v8.28c0,3.82-.46,7.33-4,9.44a10.42,10.42,0,0,0-1.87-1.94,6,6,0,0,0,3.08-4c-.54.48-1.1.93-1.61,1.37l-1.33-2.32c.8-.47,2-1.29,3.18-2.13l.11.25v-2.53l-1,.65a26.65,26.65,0,0,0-1.43-3.19v1.82H376v1.85l1.24-.48.49,2.41-1.73.72v4.72c0,1.19-.18,1.9-.8,2.31a4.48,4.48,0,0,1-2.65.54,10.25,10.25,0,0,0-.66-2.57,11.49,11.49,0,0,0,1.4,0c.22,0,.29-.06.29-.3V192l-1.39.56-.62-2.63c.58-.17,1.27-.39,2-.66v-2.72h-1.78v-2.52h1.78v-3.46H376v3.46h1.15l1.81-1c.28.46.57,1,.84,1.48ZM386.5,196c.3,0,.38-.53.43-2.33a6.59,6.59,0,0,0,2.2,1.06c-.24,2.66-.85,3.72-2.4,3.72h-1.42c-1.83,0-2.34-.79-2.34-3.55V180.84h2.49v4.76a19.85,19.85,0,0,0,1-2.85L388.8,184c-.78,1.4-1.52,3-2.16,4l-1.18-.69v2l.62-.65a22.31,22.31,0,0,1,3.11,3.33l-1.68,1.9a19.24,19.24,0,0,0-2.05-2.59V195c0,1,0,1.08.35,1.08Z"/><path d="M408.11,189.1a20.16,20.16,0,0,1-2.49,5.19c.2.64.42,1,.66,1s.4-.8.47-2.41a8.16,8.16,0,0,0,1.89,1.58c-.51,3.49-1.58,4.18-2.38,4.16-1-.06-1.84-.78-2.46-2.11a11.83,11.83,0,0,1-2.36,1.92,8.91,8.91,0,0,0-1.91-1.92c.24-.12.48-.25.69-.38h-2.89v2.49h-2.52v-2.49h-3.76v-2.41h3.76V193h-3.05v-7.18h8.77V193h-3.2v.73H401v1.93a11.71,11.71,0,0,0,2-1.86,44.44,44.44,0,0,1-.71-5.34l-1.25.17-.29-2.58,1.38-.17c-.09-1.6-.15-3.34-.18-5.19h2.49c0,1.71.05,3.35.12,4.89l3.69-.46.28,2.55-2.29.3Zm-12.27-3.82h-4.28V181h4.28Zm-1.9-2.56h-.57v.87h.57Zm0,5.77H395v-.66H393.9Zm0,2.53H395v-.67H393.9Zm6.78-5.74h-4.29V181h4.29Zm-2.4,2.55h-1.11v.66h1.11Zm0,2.52h-1.11V191h1.11Zm.49-7.63h-.56v.87h.56Zm7.42,2.52a16,16,0,0,0-1.5-3.36l2-1.06a14.34,14.34,0,0,1,1.62,3.23Zm-1.5,2.93c.08,1,.17,1.86.28,2.66a16.62,16.62,0,0,0,1.14-2.85Z"/><path d="M426,183.46a14.51,14.51,0,0,1-4,4.31,27.32,27.32,0,0,0,6,1.58,11.69,11.69,0,0,0-1.71,2.6c-.47-.1-1-.19-1.4-.3v6.91h-2.84V198h-5.85v.61h-2.69v-7c-.62.17-1.23.32-1.85.45a11,11,0,0,0-1.29-2.47,27.68,27.68,0,0,0,6.29-1.86,14.48,14.48,0,0,1-1.68-1.54,19.42,19.42,0,0,1-2.38,1.83,17.13,17.13,0,0,0-1.94-2.07,14.26,14.26,0,0,0,5.83-5.61l2.51.91c-.2.36-.42.71-.64,1h5.27l.44-.13Zm-2.29,7.86a21.31,21.31,0,0,1-4.47-1.86,29.1,29.1,0,0,1-4.65,1.86Zm-1.64,4.3v-1.81h-5.85v1.81Zm-5.18-11a13.18,13.18,0,0,0,2.37,1.77,13,13,0,0,0,2.3-1.77Z"/><path d="M447.2,196.22v2.15H436.06v-2.15h4.43v-.51h-3.41v-2.07h3.41v-.57h-3.34V191.4l-1.31,1.9c-.18-.42-.45-1-.76-1.56v6.9h-2.56v-5.87a15.48,15.48,0,0,1-1.6,3,15.22,15.22,0,0,0-1.2-2.66,17.7,17.7,0,0,0,2.45-4.62H430.1v-2.56h2.42v-1.81c-.68.12-1.33.23-2,.31a9.07,9.07,0,0,0-.72-2.11,23.81,23.81,0,0,0,5.59-1.58l1.75,2.13c-.66.26-1.36.47-2.09.68v2.38h1.56v-2h3.85v-.53c-1.09.06-2.16.08-3.18.08a7.46,7.46,0,0,0-.56-2,63.33,63.33,0,0,0,8.54-.71l1.49,2c-1.14.21-2.43.36-3.76.47v.68h3.78V186H443v.5h3.53v6.57H443v.57h3.47v2.07H443v.51Zm-12.12-7.5c.43.36,1.56,1.61,2.07,2.19V186.5h3.34V186h-3.67v2.49h-1.74Zm5.41-.36h-1.07V189h1.07Zm0,2.85v-.65h-1.07v.65Zm2.53-2.85V189h1.14v-.64Zm1.14,2.2H443v.65h1.14Z"/><path d="M460.75,186.86a56.31,56.31,0,0,1,6,5.26l-2.27,2.13a43.32,43.32,0,0,0-5-5v9.31h-2.91V190a20.78,20.78,0,0,1-5.34,4.22,17.44,17.44,0,0,0-1.82-2.53,18.22,18.22,0,0,0,7.49-7H450v-2.84h16v2.84h-5.6c-.29.53-.6,1.06-.93,1.57V188Z"/><path d="M485.22,195.58c0,1.35-.24,2.11-1,2.54a6.7,6.7,0,0,1-3.35.54,9.41,9.41,0,0,0-.87-2.74c.86.06,1.91.06,2.22.06s.42-.14.42-.44V184.05H472v14.59h-2.56v-17.2h15.74Zm-3.42-8.25h-9V185h9ZM476,195.07v1.19H473.6v-7.79h7.49v6.6Zm0-4.36v2.09h2.63v-2.09Z"/><path d="M503.45,181.22c-.14,7.71-.18,14.4.51,14.4a7.29,7.29,0,0,0,.27-2.55,14,14,0,0,0,1.42,2.26c-.24,2.19-.73,3.33-2,3.33-2.86,0-2.89-6.84-2.86-14.9H492.4v4.37c0,3.21-.31,7.83-2.29,10.58a10.58,10.58,0,0,0-2.16-1.48c1.8-2.49,1.94-6.25,1.94-9.1v-6.91Zm-3.25,12a18.37,18.37,0,0,1,1.34,4.07l-2.14.72a9.89,9.89,0,0,0-.24-1.18c-2.43.25-5,.46-6.88.63l-.17-2.45c.93,0,2.06-.12,3.29-.19v-1.6h-2.63v-5.73h2.63v-.95h-2.6v-2.17h7.54v2.17h-2.67v.95h2.8v5.73Zm-4.8-2v-1.61h-.65v1.61Zm2.27-1.61v1.61h.69v-1.61Zm.82,5.05c-.13-.32-.25-.65-.38-1l1.4-.44h-1.84v1.45Z"/><path d="M126.09,215.43a12.78,12.78,0,0,1-3,4.52,14.4,14.4,0,0,0,3.6,1,11.27,11.27,0,0,0-.84,2.64,16.73,16.73,0,0,1-4.87-2,16.58,16.58,0,0,1-4,1.89h8.21v7.31H122.6v-1h-4v1.05h-2.49v-7.11l-.16,0a10.59,10.59,0,0,0-.66-1.43l-.7.92c-.19-.42-.44-.95-.73-1.5V231h-2.51v-6.42a14.9,14.9,0,0,1-1.24,3.08,15.74,15.74,0,0,0-1.16-2.83,17.9,17.9,0,0,0,2.11-5.86h-1.71v-2.54h2V213h2.51v3.48h1.45V219h-1.12c.5.54,1.34,1.51,1.78,2a17.12,17.12,0,0,0,2.8-1.09,11.36,11.36,0,0,1-1.2-1.31c-.28.31-.55.59-.82.86a16.55,16.55,0,0,0-1.44-2.24,10.66,10.66,0,0,0,3-4.52l2.27.68c-.12.38-.29.74-.45,1.12H124l.44-.1ZM118.6,225.9v1.56h4V225.9Zm.58-9a7.28,7.28,0,0,0,1.64,1.69,8.64,8.64,0,0,0,1.62-1.69Z"/><path d="M132.57,222.63a1.87,1.87,0,0,1-1.94-1.9,1.9,1.9,0,0,1,2-1.9c1.43,0,2.2,1.1,2.2,2.85a4.91,4.91,0,0,1-3.86,4.77l-.67-1.82c1.4-.4,2.24-1.18,2.38-2Z"/><path d="M146.55,225.67c-2.37,1.1-5,2.24-7.09,3.14l-.91-3c.69-.23,1.51-.51,2.4-.85l-.42-10.79,2.8-.12.36,9.81,2.24-.93Zm7.3,5.34a31.48,31.48,0,0,0-3-4.31,13.42,13.42,0,0,1-5.14,4.33,16.72,16.72,0,0,0-2.11-2.47c5.5-2.22,7.36-6.84,8-14.44l2.94.27a31.94,31.94,0,0,1-2.14,9.59,39.43,39.43,0,0,1,3.8,4.71Zm-6.74-9.8a20.21,20.21,0,0,0-2.71-4.81l2.46-1.23a19.73,19.73,0,0,1,2.85,4.57Z"/><path d="M174.37,219.74a16,16,0,0,1-3.33,7,13.58,13.58,0,0,0,4.2,1.78,12.23,12.23,0,0,0-1.84,2.64,13.08,13.08,0,0,1-4.52-2.39,17.72,17.72,0,0,1-5.22,2.6,10.69,10.69,0,0,0-1.56-2.58,14,14,0,0,0,4.72-2.15,18.85,18.85,0,0,1-2.59-5h-.06a14.49,14.49,0,0,1-4.45,9.16,11.23,11.23,0,0,0-1.93-2.43c3.46-2.91,3.87-7.75,3.87-10.68v-1.29h-2.72v-2.7H170.7c-.3,1.77-.62,3.75-.95,5.34h2.16l.51-.11Zm-9.94-3.36v1.33c0,.42,0,.86,0,1.31h2.36c.2-.81.42-1.73.6-2.64Zm2.39,5.24a12.11,12.11,0,0,0,2,3.16,11.07,11.07,0,0,0,1.93-3.16Z"/><path d="M194.06,227.67H187.3v.87c0,1.18-.23,1.77-1.09,2.13A9.42,9.42,0,0,1,183,231a9.56,9.56,0,0,0-.82-2.32c.74,0,1.87,0,2.14,0s.38-.06.38-.28v-.78h-7.25V225.5h7.25v-.36a16.29,16.29,0,0,0,1.55-.93h-5.16v-1.9h7.58l.54-.13,1.47,1.42a32.92,32.92,0,0,1-2.89,1.9h6.27ZM180.21,224h-2.48v-4.16H179l-.31-5.68a27.65,27.65,0,0,0,3.79-1.12l1.05,1.56a18.89,18.89,0,0,1-2.33.7l0,.36h2.16v1.65h-2.07l0,.44h2.05v.76a9.56,9.56,0,0,0,1-.53c-.29-.19-.6-.38-.87-.53l1.2-1c.31.17.63.36,1,.57a5.33,5.33,0,0,0,.64-.72l1.67.53a7.81,7.81,0,0,1-.91,1.1,10.37,10.37,0,0,1,1,.8l-1.27,1.14a11.14,11.14,0,0,0-.95-.84,10.51,10.51,0,0,1-1.25.84h5.42l.05-.44h-1.87v-1.65h2l0-.44h-1.94v-1.65h2l0-.44h-2.2v-1.67H193c-.09,2.05-.24,4.47-.4,6.29h1.33V224H191.3v-2.2H180.21Zm1.28-4.16h2.76c-.22-.25-.55-.61-.82-.87v.43h-2Zm5.25-3.49a8.91,8.91,0,0,0-.8-.69,10.85,10.85,0,0,1-1.33.84,10.47,10.47,0,0,0-1.34-1.2,9.88,9.88,0,0,0,1.25-.65l-.83-.49,1.16-1c.31.16.64.35,1,.53a5.43,5.43,0,0,0,.57-.62l1.65.51a8.65,8.65,0,0,1-.84,1c.29.23.57.45.79.64Z"/><path d="M212.32,219.71c0,1.06-.16,1.63-.81,2a6.09,6.09,0,0,1-2.6.34,9.21,9.21,0,0,0-.48-2c-.85.53-1.69,1.06-2.47,1.52l.55.08c-.22.45-.46.91-.69,1.33h5.67v8.11h-2.76v-.65h-7.2v.65h-2.62v-8.11h4.27c.13-.36.24-.73.33-1.07a8.49,8.49,0,0,1-2.22.19,8.31,8.31,0,0,0-.42-1.86c-.94.61-1.9,1.2-2.76,1.71l-.92-2.13c.74-.34,1.72-.83,2.79-1.4-.6-.38-1.65-.95-2.39-1.31l.85-1.22H197.2v-2.22h7.51v6.1a2.51,2.51,0,0,1-.35,1.59l1.28.17-.84-1.94c.69-.3,1.64-.77,2.62-1.31-.6-.36-1.53-.85-2.22-1.19l.85-1.22h-1v-2.22h7.25Zm-11,.22H202c.18,0,.25-.05.25-.24v-3.84h-2.72c.65.28,1.32.63,1.74.86l-1,1.5,1.4-.75.56,1.83Zm7.44,5.06h-7.2v.66h7.2Zm0,3.36v-.66h-7.2v.66Zm-1.55-12.52c.66.29,1.33.63,1.75.86l-.8,1.17,1.25-.66.53,1.71v-3.08Zm2.73,3.21-1.31.86h1.05c.18,0,.26,0,.26-.24Z"/><path d="M220.84,228.12V231h-2.16v-2.87h-2.87v-2.41h2.87v-.84h-2.47v-7.06h2.49V217H216v-2.41h2.75v-1.68h2.16v1.68h2.87V217h-2.87v.78h2.62v7.06h-2.64v.84h2.93v2.41ZM218,220.45h.89v-.74H218Zm0,2.52h.89v-.76H218Zm3.62-3.26h-1v.74h1Zm0,2.5h-1V223h1Zm11.61,6.41a10.1,10.1,0,0,0-1.76,2.35,8.19,8.19,0,0,1-3.18-4.12,10.37,10.37,0,0,1-3.33,4.06,9.63,9.63,0,0,0-2-2,9,9,0,0,0,3.84-8v-.89h2.61v1c0,.4,0,.83,0,1.31C229.91,225.08,231.06,227.48,233.22,228.62Zm-6.16-9.81a13.73,13.73,0,0,1-1.4,3.33,19.72,19.72,0,0,0-2.13-1.6c1.17-1.73,1.78-4.63,2.06-7.6l2.54.36c-.13,1-.27,2.07-.47,3.06h3l.38-.07,1.79.42c-.31,2-.77,4.19-1.13,5.66l-2.13-.52c.17-.79.33-1.9.49-3Z"/><path d="M241.92,222.14v6.63c0,.93-.13,1.48-.69,1.82a4.21,4.21,0,0,1-2.14.36,8.45,8.45,0,0,0-.6-2c.41,0,.9,0,1.07,0s.22-.06.22-.23v-1.27c-.48.32-.93.64-1.38.95l-.44-1a9,9,0,0,1-1.07,3.71,9.5,9.5,0,0,0-1.84-1.29A9.47,9.47,0,0,0,236,225v-2.81h-.89V219h.67v-5.51H242V219h.74v2.07h9.36V223h-9.41v-.87Zm-1.14-1.31h-3.86v.51h3.86Zm-3-1.81h.44V216h1.65v-.52h-2.09Zm.31,6c0,.47,0,1,0,1.5.51-.21,1.11-.48,1.75-.78V225l-.68.79c-.23-.24-.63-.62-1-1Zm1.71-1.9h-1.71v.85l.54-.59c.38.27.82.57,1.17.86Zm.07-4.07v-1.59h-.38V219Zm12.38,9.79v1.95h-9.75v-1.95h1.89c-.12-.4-.27-.82-.4-1.16l1-.33h-1.72v-3.85h8.16v3.85h-2l1.35.38c-.26.38-.51.76-.73,1.11Zm-.42-8.21h-8.93v-6.31H245V213h2v1.31h.47V213h2v1.31h2.31Zm-7-4h.67V216h-.67Zm0,2.22h.67v-.61h-.67Zm.75,6.88H249v-.65h-3.45Zm.52,1.59a13.2,13.2,0,0,1,.55,1.49h1.27a14.08,14.08,0,0,0,.53-1.49Zm1.53-10.69V216H247v.59Zm-.58,1.61v.61h.58v-.61Zm2.8-2.2h-.67v.59h.67Zm0,2.2h-.67v.61h.67Z"/><path d="M258.31,222.63a1.87,1.87,0,0,1-1.94-1.9,1.89,1.89,0,0,1,2-1.9c1.44,0,2.2,1.1,2.2,2.85a4.92,4.92,0,0,1-3.85,4.77l-.67-1.82c1.4-.4,2.23-1.18,2.38-2Z"/><path d="M279.43,224.4c-.48-.49-1.28-1.22-2.09-1.92a8.6,8.6,0,0,1-1,1.29,15.7,15.7,0,0,0-1.46-1,16,16,0,0,0,6.85,5,12.47,12.47,0,0,0-2,2.54,16.85,16.85,0,0,1-5.43-4.31v5h-2.8V226.2a16.69,16.69,0,0,1-5.4,4.2,13.88,13.88,0,0,0-1.87-2.39,15.65,15.65,0,0,0,7.27-5.87v-4.26H268.3l2.18.44a16.13,16.13,0,0,1-.6,1.94c.6.51,1.22,1.06,1.59,1.44l-1.75,2a12,12,0,0,0-1-1,11.25,11.25,0,0,1-2,2.4,14.81,14.81,0,0,0-2-1.81,9,9,0,0,0,3.14-5.32h-2.78v-2.69h6.42V213h2.8v2.23H281v2.69h-4.15l2.17.42a14,14,0,0,1-.59,1.94c1,.76,2.15,1.65,2.8,2.26Zm-5.09-6.52V222l0,.06a8.44,8.44,0,0,0,2.07-4.18Z"/><path d="M289.2,224.13l.49,2.43c-1.76.8-3.71,1.62-5.31,2.28l-.81-2.73c.52-.15,1.16-.36,1.85-.61V220h-1.51v-2.52h1.51v-4.2h2.42v4.2h1.49V220h-1.49v4.66Zm11-8.43v6.78H289.85V215.7h1.95a13.91,13.91,0,0,0-1-1.86l2.23-1a11.58,11.58,0,0,1,1.31,2.22l-1.22.59h2.57a19.45,19.45,0,0,0,1.21-2.79l2.78.85-1.36,1.94Zm-9.52,7.37h8.81v8H297v-.91h-3.94V231h-2.38Zm3.31-5.62h-2.06v.6l1.22-.43a9.57,9.57,0,0,1,.84,1.95Zm-2.06,3.26h.8a9.05,9.05,0,0,0-.8-2.43Zm.9,0H294v-.45Zm.23,4.32v.7H297V225Zm3.94,3.13v-.57h-3.94v.57Zm1-10.71h-2.12V220a15.52,15.52,0,0,0,.8-2.35l1.32.45Zm0,3.26v-2.07c-.38.76-.72,1.52-1,2.05l-1.09-.43v.45Z"/><path d="M308.42,221.78a24.41,24.41,0,0,1-1.4,5c.26.17.57.39,1,.62,1.22.8,3,.89,5.09.89a53.47,53.47,0,0,0,7.41-.55,11.61,11.61,0,0,0-.76,2.82c-1.58.11-4.67.24-6.78.24-2.44,0-3.94-.21-5.25-1-.77-.45-1.4-1.06-1.77-1.06s-1.09,1.35-1.5,2.37l-1.75-2.65a8.23,8.23,0,0,1,2-1.7,18.21,18.21,0,0,0,.93-2.92h-2.27c.4-1.12.84-2.58,1.22-4.05H303v-2.45h4.58l-.27,1a14.28,14.28,0,0,0,3.14-5.38l2.39.74c-.26.74-.57,1.48-.9,2.21h2.19a16.33,16.33,0,0,0-.7-1.89l2.49-.74a16.08,16.08,0,0,1,1.06,2.63h2.71v2.29H316.2v.65h2.71v2.2H316.2v.76h2.62V224H316.2v.78h3.67v2.3h-8.16v.62h-2.54v-7.29c-.22.26-.46.51-.69.74a21.39,21.39,0,0,0-1.24-2.4c-.23.92-.51,1.83-.74,2.68H307l.38-.09Zm-3.4-4.73c-.21-.9-.72-2.32-1-3.39l2.32-.75c.37,1,.84,2.35,1.11,3.22Zm8.67,1.17h-2v.65h2Zm0,2.85h-2v.76h2Zm0,3h-2v.78h2Z"/><path d="M337.7,215.36V231h-2.82v-.89h-8.09V231h-2.67V215.36h4.69c.16-.8.31-1.7.38-2.42l3.24.35c-.26.72-.55,1.44-.8,2.07ZM326.79,218v1.46h8.09V218Zm0,4v1.49h8.09V222Zm8.09,5.53V226h-8.09v1.5Z"/><path d="M353.68,227.93c1.77,0,2-.42,2.26-3.11a9.67,9.67,0,0,0,2.67,1.06c-.44,3.78-1.35,4.81-4.83,4.81h-5.35c-3.7,0-4.89-.8-4.89-3.88v-6.72h10.13v-3.21H343.33V214h13.15v9.8h-2.81v-1h-7.38v4c0,1,.29,1.16,2.22,1.16Z"/><path d="M377.54,215.87s0,.87,0,1.2c-.21,8.45-.4,11.53-1.16,12.57a2.57,2.57,0,0,1-1.92,1.22,16.16,16.16,0,0,1-2.95.07,6.63,6.63,0,0,0-.87-2.68,26.76,26.76,0,0,0,2.74.12.91.91,0,0,0,.8-.34c.53-.59.75-3.38.89-9.65H371.6a20.35,20.35,0,0,1-1.54,2.83,15.86,15.86,0,0,0-1.49-1.18v9H363.8v1.35h-2.38V216.06h2.07a24.37,24.37,0,0,0,.4-3.1l2.89.42c-.3.93-.61,1.88-.9,2.68h2.69v2.53a21.33,21.33,0,0,0,2.16-5.57l2.54.63q-.3,1.11-.69,2.22Zm-11.36,2.58H363.8V221h2.38Zm0,8.21v-3.27H363.8v3.27Zm6-.57a44.26,44.26,0,0,0-2.38-4.43l2.07-1.21c.82,1.29,2,3.09,2.55,4.21Z"/><path d="M388.26,228.6c0,1.06-.2,1.61-.85,2a5.69,5.69,0,0,1-2.58.38,8.66,8.66,0,0,0-.78-2.11c.52,0,1.21,0,1.41,0s.31-.07.31-.3v-1.31c-.74.59-1.47,1.18-2.18,1.71l-.44-1.45a9.11,9.11,0,0,1-1.3,3.57,10.44,10.44,0,0,0-1.86-1.84c.95-1.52,1-3.66,1-5.35v-4h7.25Zm-.93-14.21c.68,1.4,1.6,3.32,2,4.48l-2.31.95c-.11-.32-.23-.72-.4-1.14-4.43.48-5.25.63-5.83.89-.13-.53-.55-1.76-.82-2.45a2.36,2.36,0,0,0,1-.79A15.51,15.51,0,0,0,383.1,213l2.67.78a22.72,22.72,0,0,1-2.07,3l2.07-.2c-.22-.47-.42-.93-.6-1.34Zm-2.52,11.13a18.26,18.26,0,0,0-1.38-1.56,24.53,24.53,0,0,1-.13,2.47c.71-.34,1.56-.82,2.47-1.31v-.51Zm-1.38-3.38v1.06l1-.85c.42.4.95.91,1.38,1.35v-1.56Zm9.14-.65c-2.51,0-3.16-1-3.16-3.38V213H392v2h4.24v2.34H392v.76c0,.7.09,1,.64,1H395a9.17,9.17,0,0,0,1.8-.17c0,.7.13,1.71.22,2.33a7.32,7.32,0,0,1-2,.19Zm1.74,7c.53,0,.66-.3.75-1.9a6.56,6.56,0,0,0,2.29,1c-.27,2.55-1,3.31-2.78,3.31h-2.24c-2.36,0-2.92-.78-2.92-3.18V222H392v1.69h4.33v2.41H392v1.63c0,.73.11.8.73.8Z"/><path d="M415.52,216.82s0,.91-.06,1.27c-.34,7.47-.69,10.37-1.51,11.42a2.71,2.71,0,0,1-2,1.2,15.66,15.66,0,0,1-2.93.09,6.62,6.62,0,0,0-.92-2.87c1.11.1,2.12.1,2.63.1a1,1,0,0,0,.84-.33c.52-.55.87-2.94,1.12-8h-4.52c-.29,3.95-1.6,8.62-6.62,11.47a10.91,10.91,0,0,0-2.09-2.26,11,11,0,0,0,5.87-9.21H400v-2.83h5.38V213h2.82v3.82Z"/><path d="M422.6,218.83a3.18,3.18,0,1,1-3,3.17A3.11,3.11,0,0,1,422.6,218.83Zm0,4.75a1.58,1.58,0,1,0-1.51-1.58A1.54,1.54,0,0,0,422.6,223.58Z"/><path d="M126.05,280.18v2.64h-9.67a22.78,22.78,0,0,1-2.08,3.7v9.22h-2.68v-6.2a11.64,11.64,0,0,1-1.34,1.07,18.51,18.51,0,0,0-1.26-2.7,13.52,13.52,0,0,0,4.35-5.09h-3.69v-2.64h4.85a22.66,22.66,0,0,0,.75-2.49l2.76.68c-.18.61-.38,1.2-.58,1.81Zm-4.12,12.54h4v2.54H115.08v-2.54h4.18V289h-3.49v-2.55h3.49v-2.87h2.67v2.87h3.34V289h-3.34Z"/><path d="M145.58,278.2v17.56h-2.51v-.9H132.26v.9h-2.38V278.2Zm-2.51,14.61V280.25H132.26v12.56Zm-1.27-3.89h1v1.42h-2.2v.88c0,.83-.16,1.12-.73,1.27a8.41,8.41,0,0,1-2.27.17,6,6,0,0,0-.49-1.33c.38,0,.95,0,1.11,0s.24-.06.24-.23v-.78h-2.58a7.81,7.81,0,0,1,.92,1.37l-1.74.87a8.7,8.7,0,0,0-1-1.69l1.15-.55h-2.69v-1.42h6v-.36l-5.6.15-.07-1.41,3.78,0v-.44h-3.46V283h3.46v-.46h-3.84v-1.42h3.84v-.57h2.12v.57h3.87v1.42h-3.87V283h3.49v3.91h-.62a9.33,9.33,0,0,1,1.26,1.28Zm-6.74-4.51h1.49V284h-1.49Zm1.49,1.43v-.44h-1.49v.44Zm2.12-1.84v.41h1.42V284Zm0,1.4v.44h1.42v-.44Zm0,1.48v.44l1,0,0,0,.58-.4Zm1.91,2h.67a4.25,4.25,0,0,0-.4-.46l-.27,0Z"/><path d="M155.65,279.44c-.43,1.67-1,3.82-1.47,5.28a6,6,0,0,1,1.18,3.72c0,1.33-.25,2.13-.87,2.59a2.58,2.58,0,0,1-1.09.43,9.7,9.7,0,0,1-1.16.06,7,7,0,0,0-.29-1.71v6h-2.29V278.53h3.9l.37-.1ZM152,289.2h.38a.7.7,0,0,0,.47-.15c.18-.15.26-.46.26-1A5,5,0,0,0,152,285c.27-1.12.6-2.73.84-4H152Zm14.19-4c-.62.4-1.31.82-2,1.18a16.26,16.26,0,0,0,2.51,4.94,9.35,9.35,0,0,0-1.67,1.77,20.77,20.77,0,0,1-2.4-4.86c.52,2.65.14,5.26-.73,6.23a2.67,2.67,0,0,1-2.36,1.14c-.42,0-1,0-1.49,0a5.87,5.87,0,0,0-.64-2.43,15.78,15.78,0,0,0,1.67.09.87.87,0,0,0,.93-.59,3.64,3.64,0,0,0,.42-1.65,19.43,19.43,0,0,1-4.22,2.37,9,9,0,0,0-1.54-1.91,14.26,14.26,0,0,0,5.59-3c0-.24-.1-.49-.16-.74a20.6,20.6,0,0,1-3.25,2.11,9.42,9.42,0,0,0-1.38-1.92,12.74,12.74,0,0,0,3.89-2.09,8.78,8.78,0,0,0-.48-.76,19.45,19.45,0,0,1-2.67,1.56,14.55,14.55,0,0,0-1.49-1.94A14.49,14.49,0,0,0,158,283h-2.58V280.6h2.51a12.5,12.5,0,0,0-1.51-1.66l1.92-1.23a9.83,9.83,0,0,1,2.15,2.26l-.87.63H161a14.66,14.66,0,0,0,1.5-2.85l2.53.74c-.45.76-.93,1.5-1.36,2.11H166V283h-4.71a6.71,6.71,0,0,1-.71.7,9,9,0,0,1,1.07,1.68,20.21,20.21,0,0,0,2.89-2Z"/><path d="M179.83,278.87l-.6.85a19.06,19.06,0,0,0,7,4.11,8.44,8.44,0,0,0-1.8,2.54,27.59,27.59,0,0,1-2.45-1.29v1.25h-9.09v-.89c-.74.47-1.49.89-2.24,1.27a11.38,11.38,0,0,0-1.94-2.56c3.31-1.35,6.8-3.57,8.76-6.56Zm-8.27,8.74h12.07v8H180.8V295h-6.53v.69h-2.71Zm2.71,2.41v2.47h6.53V290Zm5.82-6.21a23.35,23.35,0,0,1-2.49-2.17,28.66,28.66,0,0,1-2.4,2.17Z"/><path d="M194.94,278.64a32.86,32.86,0,0,1-1.67,3.86v13.24H190.6v-9c-.26.32-.51.61-.76.89a20.09,20.09,0,0,0-1.42-3,19.28,19.28,0,0,0,4-6.9Zm6.07,4.75V285h4.44v2.5H201v1.71h4.67v2.57H201v4h-2.72V283.39h-.35a20.55,20.55,0,0,1-2.31,3.53,16.75,16.75,0,0,0-2-1.94,18.53,18.53,0,0,0,3.8-7.12l2.55.7c-.24.74-.51,1.48-.82,2.21h6.78v2.62Z"/><path d="M224.75,281v9.88H222v-.9h-3.5v5.82h-2.8v-5.82h-3.49v1h-2.65V281h6.14v-3.25h2.8V281Zm-9.08,6.27v-3.56h-3.49v3.56Zm6.3,0v-3.56h-3.5v3.56Z"/><path d="M232.43,287.38a1.88,1.88,0,0,1-1.94-1.9,1.89,1.89,0,0,1,2-1.9c1.44,0,2.2,1.1,2.2,2.85a4.93,4.93,0,0,1-3.85,4.77l-.67-1.83c1.4-.4,2.23-1.17,2.38-2Z"/><path d="M251.7,292.32c1.6.68,3.37,1.5,4.44,2.07l-3,1.37a30.21,30.21,0,0,0-4.34-2.32l1.69-1.12h-5.32l1.89.91a23.57,23.57,0,0,1-5.71,2.62,21,21,0,0,0-2.09-2.13,21.1,21.1,0,0,0,4.62-1.4H241.6v-8.17c-.18.15-.36.28-.56.42a8.86,8.86,0,0,0-1.93-2,12.86,12.86,0,0,0,4.74-4.88l2.86.59c-.11.19-.24.4-.37.59h2.86l.41-.12,1.84,1.24A22.26,22.26,0,0,1,250,282.1h4.16v10.22ZM244.89,281c-.31.4-.64.78-1,1.14h3c.31-.36.58-.76.85-1.14Zm6.54,3.25h-7.2v.68h7.2Zm0,3.34v-.7h-7.2v.7Zm-7.2,2v.7h7.2v-.7Z"/><path d="M271.76,292.83c1.56.59,3.2,1.25,4.21,1.73l-3.23,1.2a28.45,28.45,0,0,0-4.42-2.07l1.55-.86h-4.44l1.37.65a22.26,22.26,0,0,1-5.75,2.35,14.78,14.78,0,0,0-1.91-2,23.47,23.47,0,0,0,4.2-1h-1.87v-7.54h12.45v7.54Zm4.09-8H259.31V283h6.94v-.45H261.2v-1.6h5.05v-.48h-5.89v-1.78h5.89v-.93H269v.93h6.19v1.78H269v.48h5.32v1.6H269V283h6.87ZM264,287.34h7.2v-.53H264Zm0,2h7.2v-.54H264Zm0,2h7.2v-.55H264Z"/><path d="M285.52,278.7a32.09,32.09,0,0,1-1.72,3.76v13.26h-2.62V286.5a17.2,17.2,0,0,1-1.2,1.39,20.85,20.85,0,0,0-1.53-3,19.38,19.38,0,0,0,4.44-7.13Zm6.16,9.67v4.14h4.09v2.64H285.05v-2.64H289v-4.14h-4.43v-2.66H289V282h-3.56v-2.6H295.5V282h-3.82v3.69h4.51v2.66Z"/><path d="M315.52,280.62s0,.87,0,1.19c-.22,8.46-.4,11.53-1.17,12.58a2.57,2.57,0,0,1-1.92,1.21,15.22,15.22,0,0,1-3,.08,6.48,6.48,0,0,0-.87-2.68,26.83,26.83,0,0,0,2.75.12.92.92,0,0,0,.8-.35c.52-.59.74-3.38.89-9.65h-3.46A18.85,18.85,0,0,1,308,286a17.8,17.8,0,0,0-1.49-1.17v9h-4.76v1.35H299.4V280.8h2.07a28.12,28.12,0,0,0,.4-3.09l2.89.42c-.31.93-.62,1.88-.91,2.67h2.69v2.53a21,21,0,0,0,2.16-5.56l2.54.62c-.19.74-.43,1.48-.69,2.23Zm-11.36,2.58h-2.38v2.56h2.38Zm0,8.21v-3.27h-2.38v3.27Zm6-.57a44.26,44.26,0,0,0-2.38-4.43l2.08-1.22c.81,1.3,2,3.1,2.54,4.22Z"/><path d="M324.06,278.47a38,38,0,0,1-1.45,3.91v13.36h-2.42v-8.89c-.25.36-.5.7-.76,1a22.12,22.12,0,0,0-1.24-3,20.82,20.82,0,0,0,3.44-7.12Zm10.85,5a26.1,26.1,0,0,1-1.5,7.35,7.45,7.45,0,0,0,2.36,2.7,10.85,10.85,0,0,0-1.53,2.16,8.84,8.84,0,0,1-2.11-2.47,9.82,9.82,0,0,1-2.43,2.47,11.3,11.3,0,0,0-1.56-1.84l.23-.15h-2.72v1.4h-2.26v-8.72h1.69v-2.85h-1.85V281h1.85V278h2.49V281h1.64v2.47h-1.64v2.85h1.09c-.16-.26-.32-.49-.45-.66,1.27-1.88,2-4.87,2.31-7.94l2.34.42c-.14,1-.33,2-.54,3h3.45v2.3Zm-8,5.22h-1.25v2.68h1.25Zm2.29,4.37a8.32,8.32,0,0,0,1.8-2.32,24.72,24.72,0,0,1-.89-3.38c-.17.27-.33.51-.51.76-.09-.21-.24-.49-.4-.82Zm2.54-9.59c-.07.22-.14.43-.2.64a25.78,25.78,0,0,0,.62,3.37,28.56,28.56,0,0,0,.55-4Z"/><path d="M345.48,283.83a19.2,19.2,0,0,1-1.13,6.23,26,26,0,0,1,2.2,2.31l-1.74,2.3c-.44-.59-1.06-1.29-1.75-2.05a12.12,12.12,0,0,1-2.92,3.19,9.27,9.27,0,0,0-1.86-1.95,10.51,10.51,0,0,0,2.91-3.2c-.91-.91-1.82-1.82-2.6-2.62.26-1.06.53-2.37.75-3.8l-.8.06-.24-2.6,1.38-.06c.17-1.33.28-2.66.33-3.89l2.62.13c-.09,1.16-.22,2.39-.37,3.63l.79,0v-1.08h2.45v.95l.93-.06,0,2.47Zm-3.16,4.31A16.72,16.72,0,0,0,343,284l-1.11.07c-.18,1.1-.36,2.17-.56,3.16Zm13.3-.12h-3.43v4.85c0,1.35-.26,2-1.11,2.45a8.28,8.28,0,0,1-3.4.45,11.19,11.19,0,0,0-.87-2.64c.82,0,1.92,0,2.21,0s.42-.07.42-.36V288h-3.65V285.4h3.65v-1.57a13,13,0,0,0,2-2.61h-5v-2.49h6.65l.62-.13,1.76,1.33a24.85,24.85,0,0,1-3.3,4.29v1.18h3.43Z"/><path d="M372.66,289.3c0,.55-.06,1.06-.09,1.52h2v2.39h-2.22a4,4,0,0,1-.45,1.44,2.2,2.2,0,0,1-1.64,1.05,13.14,13.14,0,0,1-2.51.07,5.32,5.32,0,0,0-.61-2.08,13.75,13.75,0,0,0,1.78.07.66.66,0,0,0,.65-.32,1.24,1.24,0,0,0,.11-.23h-9.49c.22-1.1.44-2.47.66-3.91H358.3v-2.45h2.82c.11-.86.2-1.69.27-2.51-.29.36-.58.7-.87,1a18.9,18.9,0,0,0-2.37-1.6,16.25,16.25,0,0,0,4.18-6.16l2.64.8c-.13.31-.27.63-.42.93h10.12v2.45H363.19c-.26.42-.53.82-.78,1.22h10.45s0,.84,0,1.16c0,1-.06,1.88-.07,2.7h2.63v2.45Zm-9.2-.1c-.07.55-.14,1.1-.22,1.62h3a10.08,10.08,0,0,0-1.51-.93l.68-.69Zm.46-3.82-.19,1.56h2.51a9.88,9.88,0,0,0-1.4-.85l.69-.71Zm6.07,5.44c0-.48.05-1,.09-1.62h-2.51a9.24,9.24,0,0,1,1.36,1l-.58.61Zm.21-5.44h-2.56a10,10,0,0,1,1.4,1l-.51.53h1.64Z"/><path d="M395.18,285v3H378.24v-3Z"/><path d="M403.57,278.53c-.38,1.17-.86,2.41-1.38,3.59v13.65h-2.51V286.6a13.61,13.61,0,0,1-.89,1.16,18.56,18.56,0,0,0-1.22-3,20,20,0,0,0,3.58-7Zm11.12.05v17h-2.51v-.94H406v1.11h-2.4V278.58Zm-2.51,13.68V281H406v11.3ZM410,285v1.41h1.56v5.15h-5v-5.15H408V285h-1.71v-1.95H408v-1.83h2v1.83h1.85V285Zm-.4,3.27h-1.17v1.44h1.17Z"/><path d="M426.78,282.46c-.34.81-.67,1.65-1,2.35h1.93v2.49H418v-2.49h2.07a15.35,15.35,0,0,0-.8-2.3l1.36-.34H418.4v-2.45h3.28c-.17-.51-.33-1-.51-1.5l2.41-.7a19.34,19.34,0,0,1,.84,2.2h2.91v2.45h-1.84Zm-8.08,6h8.39v7.24h-2.62V295h-3.28v.81H418.7Zm2.49,2.45v1.67h3.28v-1.67Zm.45-8.74a14.25,14.25,0,0,1,.87,2.38l-.94.26h1.71a19.82,19.82,0,0,0,.85-2.64Zm13.48-2.54c-.58,1.88-1.3,4.08-1.94,5.66a6.54,6.54,0,0,1,1.56,4.41c0,1.5-.31,2.45-1,3a2.8,2.8,0,0,1-1.27.49,6.76,6.76,0,0,1-1.32.06,6.72,6.72,0,0,0-.6-2.55,6.14,6.14,0,0,0,.81,0,1.2,1.2,0,0,0,.62-.17c.27-.17.38-.57.38-1.2a5.6,5.6,0,0,0-1.58-3.74c.42-1.27.93-3.15,1.29-4.6h-1.54v14.61H428.2V278.54h4.72l.37-.09Z"/><path d="M449.85,278a11,11,0,0,0,5.29,6.69,15.49,15.49,0,0,0-1.87,2.58,12.6,12.6,0,0,1-1.11-.81c-.16,5.16-.36,7.31-1,8.09a2.51,2.51,0,0,1-1.82,1.06,15.45,15.45,0,0,1-2.69.1,6.82,6.82,0,0,0-.87-2.79c.91.07,1.76.09,2.21.09a.9.9,0,0,0,.73-.28c.33-.38.49-2,.62-5.47h-3c-.44,3.59-1.64,6.76-6.43,8.66a9.15,9.15,0,0,0-1.73-2.57c4-1.36,4.92-3.59,5.27-6.09h-2.73v-1.2a16.53,16.53,0,0,1-1.23,1.27,20,20,0,0,0-2.22-2.07,13.44,13.44,0,0,0,4.42-6.88l2.8.71a21.67,21.67,0,0,1-2.66,5.49h8.42a16.66,16.66,0,0,1-2.42-4H445.2V278Z"/><path d="M461.58,287.38a1.88,1.88,0,0,1-1.94-1.9,1.89,1.89,0,0,1,2-1.9c1.44,0,2.2,1.1,2.2,2.85A4.93,4.93,0,0,1,460,291.2l-.67-1.83c1.4-.4,2.23-1.17,2.38-2Z"/><path d="M474.33,292.07l3.31-.32,0,2.39c-3.12.36-6.5.7-9,.95l-.32-2.53,3.5-.28v-.95h-2.65v-2.2h2.65v-.86H469v-2.22h1.69a11.77,11.77,0,0,0-1-1.58l.83-.47h-2v-2.25h2.29v-.87l-1,.72a8.63,8.63,0,0,0-1.38-2.11l1.55-1.1c.27.29.56.61.82.95v-1.61h2v4h.51v-4h2.07v1.71a9.34,9.34,0,0,0,.64-.95l2,1.19c-.8.76-1.54,1.5-2.12,2l-.55-.36v.43h2.18V284h-2.05l1.07.38c-.31.59-.58,1.16-.85,1.67h1.36v2.22h-2.78v.86H477v2.2h-2.62Zm-2.4-8.07a5.89,5.89,0,0,1,.86,1.4l-1.1.65h1.71c.29-.61.6-1.39.84-2.05Zm13.25.93H484v7.81c0,1.31-.22,2-1,2.45a6.34,6.34,0,0,1-3.15.53,10.54,10.54,0,0,0-.89-2.62c.85,0,1.75,0,2.05,0s.4-.09.4-.39v-7.81h-3.72v-2.57h3.72v-4.65H484v4.65h1.18Zm-5.25.81a14.4,14.4,0,0,1,1.31,4.18l-2.33.86a15.16,15.16,0,0,0-1.15-4.28Z"/><path d="M503.63,280.1v15.62h-2.81v-.89h-8.09v.89h-2.67V280.1h4.69c.16-.8.31-1.69.38-2.41l3.23.34c-.25.72-.54,1.45-.8,2.07Zm-10.9,2.64v1.47h8.09v-1.47Zm0,4v1.48h8.09v-1.48Zm8.09,5.53v-1.5h-8.09v1.5Z"/><path d="M121.47,325.05c1.77,0,2-.42,2.26-3.11A9.55,9.55,0,0,0,126.4,323c-.44,3.78-1.35,4.81-4.84,4.81h-5.34c-3.71,0-4.89-.8-4.89-3.88v-6.72h10.13V314H111.11v-2.85h13.16V321h-2.81v-1h-7.38v4c0,1,.29,1.16,2.21,1.16Z"/><path d="M136.37,322.79c-2.36,1.1-5,2.24-7.09,3.13l-.9-3c.69-.23,1.5-.51,2.39-.85l-.41-10.79,2.8-.12.36,9.8,2.23-.93Zm7.31,5.34a31.66,31.66,0,0,0-3.06-4.31,13.42,13.42,0,0,1-5.14,4.33,15.59,15.59,0,0,0-2.11-2.47c5.51-2.22,7.36-6.84,8-14.44l2.95.27a31.92,31.92,0,0,1-2.15,9.59,38.46,38.46,0,0,1,3.8,4.71Zm-6.74-9.8a20.56,20.56,0,0,0-2.71-4.81l2.45-1.23a19.4,19.4,0,0,1,2.85,4.57Z"/><path d="M164.19,316.86a16,16,0,0,1-3.32,7,13.62,13.62,0,0,0,4.19,1.78,12.55,12.55,0,0,0-1.83,2.64,13.39,13.39,0,0,1-4.53-2.39,17.78,17.78,0,0,1-5.21,2.6,11.05,11.05,0,0,0-1.57-2.58,14,14,0,0,0,4.73-2.15,18.87,18.87,0,0,1-2.6-5H154a14.5,14.5,0,0,1-4.46,9.16,11.19,11.19,0,0,0-1.92-2.43c3.45-2.91,3.87-7.75,3.87-10.68V313.5h-2.73v-2.7h11.76c-.29,1.77-.62,3.75-.94,5.34h2.16l.51-.11Zm-9.94-3.36v1.33c0,.42,0,.86,0,1.31h2.36c.21-.81.42-1.73.6-2.64Zm2.4,5.24a11.86,11.86,0,0,0,2,3.16,11,11,0,0,0,1.92-3.16Z"/><path d="M183.51,310.58v17.55H181v-.89H170.19v.89H167.8V310.58ZM181,325.18V312.63H170.19v12.55Zm-1.27-3.89h1v1.42h-2.2v.88c0,.83-.17,1.12-.73,1.27a8.41,8.41,0,0,1-2.27.17,6.18,6.18,0,0,0-.49-1.33c.38,0,.94,0,1.11,0s.23-.06.23-.23v-.78h-2.58a7.39,7.39,0,0,1,.93,1.37L173,325a8.6,8.6,0,0,0-1-1.69l1.14-.56h-2.69v-1.42h6v-.36l-5.59.15-.08-1.41,3.78,0v-.43H171v-3.92h3.45v-.45h-3.83v-1.43h3.83v-.57h2.13v.57h3.87v1.43H176.6v.45h3.49v3.92h-.62a9.34,9.34,0,0,1,1.26,1.27Zm-6.75-4.5h1.49v-.42H173Zm1.49,1.42v-.43H173v.43Zm2.13-1.84v.42H178v-.42Zm0,1.41v.43H178v-.43Zm0,1.48v.43l1,0h0l.59-.4Zm1.91,2h.67c-.13-.15-.25-.3-.4-.46l-.27,0Z"/><path d="M193,311.81c-.44,1.67-1,3.82-1.47,5.28a6.07,6.07,0,0,1,1.18,3.73c0,1.32-.26,2.12-.87,2.58a2.64,2.64,0,0,1-1.09.44c-.31,0-.73.05-1.17.05a7.12,7.12,0,0,0-.29-1.71v6H187V310.9h3.91l.36-.1Zm-3.71,9.77h.38a.67.67,0,0,0,.48-.16c.18-.15.25-.45.25-1a5,5,0,0,0-1-3.07c.27-1.12.6-2.74.83-4h-.89Zm14.2-4c-.62.4-1.31.81-2,1.18a16.66,16.66,0,0,0,2.51,4.93,9.68,9.68,0,0,0-1.67,1.77,21.37,21.37,0,0,1-2.4-4.86c.53,2.66.15,5.26-.73,6.23a2.65,2.65,0,0,1-2.36,1.14c-.42,0-1,0-1.49,0a5.85,5.85,0,0,0-.63-2.43,15.52,15.52,0,0,0,1.67.09.86.86,0,0,0,.92-.58,3.6,3.6,0,0,0,.42-1.66,20.09,20.09,0,0,1-4.21,2.38,9.13,9.13,0,0,0-1.55-1.92,14.29,14.29,0,0,0,5.6-3c-.06-.25-.11-.5-.16-.74a21.32,21.32,0,0,1-3.26,2.1,9.36,9.36,0,0,0-1.38-1.91,13.18,13.18,0,0,0,3.89-2.09,6.45,6.45,0,0,0-.47-.76,19.36,19.36,0,0,1-2.67,1.55A14.67,14.67,0,0,0,192,317a15.5,15.5,0,0,0,3.3-1.67h-2.58V313h2.51a11.24,11.24,0,0,0-1.51-1.65l1.93-1.24a10,10,0,0,1,2.14,2.26L197,313h1.4a14.7,14.7,0,0,0,1.51-2.85l2.52.74c-.45.76-.92,1.5-1.36,2.11h2.29v2.36H198.6a9.24,9.24,0,0,1-.7.7A9.12,9.12,0,0,1,199,317.7a22.35,22.35,0,0,0,2.89-2Z"/><path d="M218.12,324.69c1.6.68,3.36,1.5,4.43,2.07l-3,1.37a30.76,30.76,0,0,0-4.34-2.32l1.69-1.12h-5.33l1.89.91a23,23,0,0,1-5.71,2.62,19.89,19.89,0,0,0-2.09-2.12,21.65,21.65,0,0,0,4.62-1.41H208v-8.17c-.19.15-.37.29-.57.42a8.82,8.82,0,0,0-1.92-2,12.79,12.79,0,0,0,4.74-4.88l2.85.59c-.11.19-.23.4-.36.59h2.85l.42-.11,1.83,1.23a21.39,21.39,0,0,1-1.41,2.09h4.16v10.22Zm-6.82-11.36a11.78,11.78,0,0,1-1,1.14h3c.3-.36.58-.76.85-1.14Zm6.55,3.25h-7.2v.68h7.2Zm0,3.34v-.7h-7.2v.7Zm-7.2,2v.7h7.2v-.7Z"/><path d="M237.58,325.2c1.56.59,3.2,1.26,4.22,1.73l-3.24,1.2a28.45,28.45,0,0,0-4.42-2.07l1.55-.86h-4.43l1.36.65a22.56,22.56,0,0,1-5.74,2.36,16.22,16.22,0,0,0-1.91-2,23.35,23.35,0,0,0,4.19-1h-1.87v-7.54h12.45v7.54Zm4.09-8H225.13v-1.86h6.94v-.46h-5v-1.6h5v-.47h-5.89V311h5.89v-.93h2.73V311H241v1.79h-6.2v.47h5.32v1.6H234.8v.46h6.87Zm-11.81,2.52h7.19v-.53h-7.19Zm0,2h7.19v-.53h-7.19Zm0,2h7.19v-.55h-7.19Z"/><path d="M248.14,319.75a1.88,1.88,0,0,1-1.95-1.9,1.9,1.9,0,0,1,2-1.9c1.43,0,2.2,1.1,2.2,2.85a4.92,4.92,0,0,1-3.86,4.77l-.67-1.82c1.4-.4,2.24-1.18,2.38-2Z"/><path d="M264.4,325.28l1.09,0c1.18,0,4.52,0,6-.06a9.28,9.28,0,0,0-.87,2.62h-5.33c-3.16,0-5.36-.43-6.9-2.45a9.15,9.15,0,0,1-2.42,2.76,13,13,0,0,0-2-1.94,7.6,7.6,0,0,0,3.29-5.49l2.64.4a16.58,16.58,0,0,1-.42,1.65,3.76,3.76,0,0,0,2.2,2v-4.33H254.8v-2.41h16.12v2.41H264.4v1h5.38v2.37H264.4Zm4.92-7.81h-13v-6.82h13Zm-2.69-4.92h-7.7v.63h7.7Zm0,2.4h-7.7v.62h7.7Z"/><path d="M290,320.32a12,12,0,0,1-2,4.37,10.31,10.31,0,0,0,2.88,1.14,9.2,9.2,0,0,0-1.55,2.15,10.22,10.22,0,0,1-3.05-1.5,12.31,12.31,0,0,1-2.91,1.69,9.5,9.5,0,0,0-1.25-2v1.92h-2.46v-1.52l-5.7.59-.19-2.36,1.51-.11v-5.4H273.9v-2.16h16.37v2.16h-8.19V326a8.37,8.37,0,0,0,2.32-1.25,11.67,11.67,0,0,1-1.54-2.6l.92-.27h-1.21v-2.07h5.34l.44-.08Zm-11.43-3.53H276v-6.1h12.11v6.1h-2.66v-4.24h-6.92Zm-1,2.54v.46h2.05v-.46Zm0,2.8h2.05v-.48h-2.05Zm2.05,2.24V324h-2.05v.55Zm5.35-9.82h-6V313h6Zm-6,.49h6v1.56h-6Zm6.16,6.8a6.07,6.07,0,0,0,.89,1.27,8.15,8.15,0,0,0,.78-1.27Z"/><path d="M309.73,325.47v2.15H293v-2.15h6.91v-.63h-5.56v-2h5.56v-.57h-5v-6.15h5v-.48h-6.8v-2.13h6.8v-.55c-1.67.08-3.35.13-4.91.13a8.19,8.19,0,0,0-.53-2.1,98.25,98.25,0,0,0,12.31-.9l1.16,2.13c-1.6.25-3.45.46-5.38.59v.7h7v2.13h-7v.48h5.27v6.15h-5.27v.57h5.94v2h-5.94v.63Zm-12.17-7.12h2.38v-.52h-2.38Zm2.38,2.1v-.51h-2.38v.51Zm2.65-2.62v.52h2.56v-.52Zm2.56,2.11h-2.56v.51h2.56Z"/><path d="M325.47,323.11a8.27,8.27,0,0,1-1.31,1.69c1.8.46,3.42.94,4.69,1.33l-2.35,1.92c-1.23-.47-2.89-1-4.79-1.54-2.13,1-4.89,1.43-8.51,1.68a7.53,7.53,0,0,0-1-2.38,33.25,33.25,0,0,0,5-.44c-1-.22-2-.43-3.07-.64.38-.48.8-1,1.22-1.62h-3.18v-2.26h4.6c.27-.49.52-1,.74-1.44h-4.25V313.8h3.89V313h-4.69v-2.37h16V313h-4.81v.76h4.34v5.61h-9.52l1.73.4c-.15.34-.33.7-.51,1h3.89c.12-.32.25-.66.36-1l2.58.64-.13.4H329v2.26Zm-9.67-5.83h1.42V316H315.8Zm2.43,6.14c1,.19,1.93.4,2.86.62a4.93,4.93,0,0,0,1.14-.93h-3.8Zm1.48-9.62h1.56V313h-1.56Zm1.56,3.48V316h-1.56v1.33Zm2.49-1.33v1.33h1.71V316Z"/><path d="M348.11,313s0,.87,0,1.19c-.22,8.46-.4,11.54-1.16,12.58A2.59,2.59,0,0,1,345,328a16,16,0,0,1-2.94.07,6.51,6.51,0,0,0-.88-2.68,27,27,0,0,0,2.75.12.93.93,0,0,0,.8-.34c.52-.59.74-3.39.89-9.65h-3.45a20.33,20.33,0,0,1-1.55,2.83,14.65,14.65,0,0,0-1.49-1.18v9h-4.76v1.35H332V313.18h2.07a26.32,26.32,0,0,0,.4-3.1l2.89.42c-.31.93-.62,1.88-.91,2.68h2.69v2.53a21.12,21.12,0,0,0,2.16-5.57l2.55.63c-.2.74-.44,1.48-.69,2.22Zm-11.36,2.58h-2.38v2.57h2.38Zm0,8.21v-3.27h-2.38v3.27Zm6-.57a48.78,48.78,0,0,0-2.38-4.43l2.07-1.21c.82,1.29,2,3.09,2.54,4.21Z"/><path d="M350.59,326.44a11.53,11.53,0,0,0,1.38-3.5l2.28.93a16.5,16.5,0,0,1-1.35,3.8ZM357.84,315a6.93,6.93,0,0,0-.43-.87c-4.76.51-5.51.64-6,.87-.13-.47-.48-1.54-.71-2.12a2.62,2.62,0,0,0,1-.56,10.43,10.43,0,0,0,2.09-2.22l2.31.7a19,19,0,0,1-1.71,1.77l2-.19-.52-.74,1.76-.91a20.89,20.89,0,0,1,2.14,3.27c0-.16,0-.33,0-.52v-3.25h2.41v1h4.27v2h-4.27v.3c0,.55.08.78.6.78h2.35a9,9,0,0,0,1.78-.17c0,.66.11,1.58.2,2.16a7.24,7.24,0,0,1-1.89.18h-2.55c-2.12,0-2.79-.71-2.89-2.45l-1.79,1h.78v5.91c0,.93-.18,1.37-.77,1.67a5.08,5.08,0,0,1-2.25.29,8.34,8.34,0,0,0-.64-1.75,7.75,7.75,0,0,0,1.15,0c.18,0,.25-.06.25-.23v-.57c-.83.46-1.65.91-2.43,1.31l-.4-1.06a5.09,5.09,0,0,1-1.15,2.39,10.58,10.58,0,0,0-1.87-1.37,5.3,5.3,0,0,0,1.09-3.8V315Zm-2.41,4.11c-.42-.27-1-.59-1.55-.86,0,.44,0,.91-.09,1.39Zm-1.55-2.25v.73l.57-.73Zm2.58,0h-2c.62.27,1.45.67,2,1Zm4.37,8.8c.78,0,.92-.27,1-1.92a7.43,7.43,0,0,0,2.22.89c-.27,2.55-.95,3.2-3,3.2H358c-2.69,0-3.38-.67-3.38-2.74v-1.73h2.56V325c0,.55.19.61,1.11.61Zm-4.37-6.91V318l-.63.91Zm3.15,3.24c.51.65,1.25,1.56,1.63,2.13l-1.92,1.33c-.33-.59-1-1.58-1.55-2.28Zm3,.9c-2.35,0-2.87-.67-2.87-2.78v-3.63h2.41v1h4.35v2h-4.35v.58c0,.57.13.63.79.63h1.79c.48,0,.6-.13.68-.78a6.79,6.79,0,0,0,2.1.84c-.27,1.65-.92,2.11-2.52,2.11Zm3.63.07c.44,1.07,1,2.53,1.29,3.42l-2.41.8c-.22-.91-.73-2.41-1.15-3.55Z"/><path d="M373.8,316.6c0,3.3-.24,8.3-1.75,11.47a10.33,10.33,0,0,0-2.43-1.18c1.45-2.94,1.56-7.33,1.56-10.27v-5h6.76c-.11-.38-.22-.74-.33-1.06l2.69-.61a11.76,11.76,0,0,1,.58,1.67h5.86v2.55H373.8Zm12.08,5.26a8.8,8.8,0,0,1-2.87,3.36,31.79,31.79,0,0,0,4.05.5,10.52,10.52,0,0,0-1.52,2.39,21.61,21.61,0,0,1-5.73-1.27,25.57,25.57,0,0,1-5.45,1.16,10,10,0,0,0-1.07-2.3,29.31,29.31,0,0,0,3.6-.48,9.49,9.49,0,0,1-1.78-1.69l.78-.3H374.2V321.1h9.57l.46-.1Zm-9.56-1.25v-2.89h-2.2v-2.15h2.2v-1h2.49v1h2.71v-1h2.6v1h2.45v2.15h-2.45v2.89Zm1.69,2.62a8,8,0,0,0,1.89,1.08,8.4,8.4,0,0,0,1.86-1.08Zm.8-5.51v.83h2.71v-.83Z"/><path d="M393.17,316a3.18,3.18,0,1,1-3,3.17A3.1,3.1,0,0,1,393.17,316Zm0,4.75a1.58,1.58,0,1,0-1.51-1.58A1.54,1.54,0,0,0,393.17,320.7Z"/></svg>